<?xml version="1.0" encoding="UTF-8" standalone="no"?>
<svg
   xmlns:dc="http://purl.org/dc/elements/1.1/"
   xmlns:cc="http://creativecommons.org/ns#"
   xmlns:rdf="http://www.w3.org/1999/02/22-rdf-syntax-ns#"
   xmlns:svg="http://www.w3.org/2000/svg"
   xmlns="http://www.w3.org/2000/svg"
   xmlns:sodipodi="http://sodipodi.sourceforge.net/DTD/sodipodi-0.dtd"
   xmlns:inkscape="http://www.inkscape.org/namespaces/inkscape"
   width="432.10907mm"
   height="458.36118mm"
   viewBox="0 0 432.10907 458.36117"
   version="1.1"
   id="svg8"
   inkscape:version="1.0.1 (3bc2e813f5, 2020-09-07)"
   sodipodi:docname="wapyn gornego ślonska.svg">
  <defs
     id="defs2" />
  <sodipodi:namedview
     id="base"
     pagecolor="#ffffff"
     bordercolor="#666666"
     borderopacity="1.0"
     inkscape:pageopacity="0.0"
     inkscape:pageshadow="2"
     inkscape:zoom="0.35355339"
     inkscape:cx="680.50402"
     inkscape:cy="982.08157"
     inkscape:document-units="mm"
     inkscape:current-layer="layer1"
     inkscape:document-rotation="0"
     showgrid="false"
     inkscape:window-width="1920"
     inkscape:window-height="1017"
     inkscape:window-x="-8"
     inkscape:window-y="-8"
     inkscape:window-maximized="1"
     fit-margin-top="0"
     fit-margin-left="0"
     fit-margin-right="0"
     fit-margin-bottom="0" />
  <metadata
     id="metadata5">
    <rdf:RDF>
      <cc:Work
         rdf:about="">
        <dc:format>image/svg+xml</dc:format>
        <dc:type
           rdf:resource="http://purl.org/dc/dcmitype/StillImage" />
        <dc:title></dc:title>
      </cc:Work>
    </rdf:RDF>
  </metadata>
  <g
     inkscape:label="Warstwa 1"
     inkscape:groupmode="layer"
     id="layer1"
     transform="translate(113.29521,57.425305)">
    <path
       style="fill:#007cc2;fill-opacity:1;stroke:none;stroke-width:0.264583px;stroke-linecap:butt;stroke-linejoin:miter;stroke-opacity:1"
       d="m 102.26146,398.46249 -89.826043,-36.77708 -45.550111,-30.1643 -31.617986,-39.10152 -13.283295,-32.17926 -8.418988,-40.97241 -5.612659,-81.19649 -6.548104,-95.976479 -7.483544,-41.15950767 -4.86431,-20.95393033 3.3676,-5.238483 30.308361,-11.786585 42.843304,-8.980258 56.313689,-6.173925 78.764326,-2.245063 h 17.21216 l 67.53901,2.245063 63.79723,7.857723 46.2109,11.786587 19.64431,8.980256 -3.1805,21.5151967 -5.0514,31.0567183 -7.85773,64.171414 -3.74176,82.880283 -6.17392,62.11343 -9.16737,28.62458 -12.72201,28.43747 -18.52178,24.88279 -25.44406,22.07646 -28.0633,16.08963 -47.8947,22.63772 -36.66938,14.78 z"
       id="path931" />
    <g
       id="g861"
       transform="translate(-434.2619,36.655789)"
       style="stroke:#000000;stroke-width:1;stroke-miterlimit:4;stroke-dasharray:none;stroke-opacity:1">
      <path
         style="fill:#f0cb14;stroke:#000000;stroke-width:1;stroke-miterlimit:4;stroke-dasharray:none;stroke-opacity:1"
         d="m 511.34295,354.14193 c -37.6185,-15.18405 -59.31182,-24.96539 -73.91534,-33.32779 -2.77183,-1.58724 -6.27687,-3.5869 -7.78898,-4.4437 -16.07703,-9.10973 -36.53298,-26.38234 -47.27962,-39.92204 -16.56307,-20.8678 -27.1977,-45.01417 -33.29971,-75.60839 -3.79109,-19.00773 -5.88605,-40.24638 -7.72176,-78.28307 -1.95965,-40.605063 -2.30573,-47.001583 -3.72643,-68.87567 -2.65687,-40.907173 -7.42768,-75.510838 -14.52751,-105.371237 -1.98305,-8.340275 -2.00805,-8.64082 -0.79992,-9.617039 12.44957,-7.521643 28.26943,-12.304244 41.56456,-15.63284 70.67394,-17.470535 193.74596,-21.772118 288.60582,-10.087282 37.119,4.572318 63.74194,10.395709 83.93682,18.359987 6.78163,2.674482 16.18487,7.420685 16.18487,8.169177 0,0.17808 -1.18242,5.530544 -2.62761,11.894363 -6.99269,30.792031 -11.18739,61.580918 -13.79805,101.276934 -0.95377,14.502554 -1.47939,24.062204 -3.06655,55.772497 -2.68485,53.64143 -3.93811,68.41835 -7.43723,87.69048 -8.23972,45.38205 -26.85183,78.78694 -57.7067,103.5716 -17.07502,13.71578 -41.93448,27.73989 -71.93,40.57828 -19.09154,8.17138 -57.77941,23.5034 -59.28298,23.49388 -0.84105,-0.005 -12.26371,-4.34249 -25.38368,-9.63814 z m 43.94331,-1.39669 c 43.65431,-17.4529 63.24373,-26.31946 82.48189,-37.33296 42.44387,-24.29835 65.83543,-53.32881 78.78176,-97.77333 7.12274,-24.45226 9.38255,-44.64473 12.82176,-114.56879 1.80785,-36.756183 3.10451,-57.25177 4.76131,-75.259262 2.55239,-27.74154498 6.89875,-55.999437 11.76764,-76.507479 1.08428,-4.567075 1.97143,-8.832148 1.97143,-9.47794 0,-0.82097 -1.76864,-1.992039 -5.87963,-3.893088 -20.90206,-9.665746 -55.15439,-17.431638 -96.9299,-21.97652 -38.24279,-4.160547 -61.37978,-5.314133 -107.17724,-5.343747 -38.11282,-0.02464 -52.98932,0.464904 -80.63492,2.653495 -58.60627,4.639623 -99.33545,12.650223 -125.4881,24.680948 -6.6937,3.079234 -6.53347,2.713415 -4.58227,10.461365 7.83495,31.111503 13.39988,77.526565 16.16659,134.839475 3.86786,80.123403 5.14911,95.491283 9.85995,118.264563 9.85859,47.65869 31.20126,80.23431 69.10203,105.47138 20.37406,13.56652 43.01136,24.43006 93.06613,44.66201 10.90252,4.40676 20.39606,8.03487 21.09676,8.06247 0.7007,0.0276 9.16736,-3.10557 18.81481,-6.96259 z"
         id="path871"
         sodipodi:nodetypes="ssssssssccssssssssscssssssssssssssssssss" />
    </g>
    <path
       style="fill:#f8ce00;fill-opacity:1;stroke:none;stroke-width:0.668847px;stroke-linecap:butt;stroke-linejoin:miter;stroke-opacity:1"
       d="m 81.531377,328.44151 -13.833698,8.98598 -15.13426,6.03007 -11.587193,-0.23637 -7.567137,-4.02004 -2.246494,-5.67537 -0.591206,-4.72949 3.842696,-11.23248 5.793608,-4.37473 0.827638,7.86276 3.074161,3.9018 c 0,0 3.665324,1.12326 3.9018,1.12326 0.236362,0 6.798622,-1.00499 6.798622,-1.00499 l 7.448913,-4.25656 5.320628,-5.32063 5.202418,-8.98602 0.650281,-2.30558 -12.533051,-7.98096 -1.891794,-5.67536 13.597208,0.65025 7.508018,-4.72942 4.315646,-7.21245 1.9509,-8.92682 0.886771,-26.95796 -2.590548,-16.51958 -6.813867,-8.56961 6.479459,-5.76879 -2.926214,-14.0876 -6.563042,6.56304 -3.511474,13.33514 0.710657,10.61795 -12.708092,-5.81059 -4.556511,3.55323 -2.926228,9.69829 2.173772,3.34424 13.595993,-2.163 1.36854,3.35388 5.202404,10.61173 -3.547085,5.85269 -9.458932,-2.42384 -10.168346,-6.03005 -8.453926,0.53206 -2.010034,3.07414 0.886771,13.006 -10.463912,9.69541 -6.03007,-6.73949 7.508018,-11.4098 -1.123261,-5.20243 -7.508018,4.67035 -5.261524,7.09419 -5.557104,0.65025 -4.1973952,-11.8236 13.7154322,-9.28159 4.788585,-2.12825 -6.562156,-2.18735 -5.497985,0.11832 -4.670334,4.493 -4.7885842,-1.00501 -3.7244711,-10.0501 5.6162519,-5.49799 9.7545134,1.18238 18.090211,7.15334 8.394789,-9.8728 6.975966,-13.41983 -9.222461,-7.7445 -0.650309,-5.55711 8.335684,-0.82771 6.562132,-3.72441 7.389779,-8.92691 5.498014,-16.67135 -8.513041,6.50302 -0.709414,-9.10424 -5.025062,0.0588 2.423853,-4.31563 9.695408,-7.62625 3.192385,-11.40987 -0.05916,-16.84873 -3.606219,-15.84366 -2.719447,4.96594 -0.177457,19.56812 -3.192386,9.39984 -8.099208,12.35569 -4.374754,-0.88677 -2.601211,-32.27855 -1.655304,8.0992 -1.655318,35.41183 -2.423852,22.2876 -3.015028,12.94696 -4.433886,5.73441 -7.921836,6.38482 -8.690399,1.71439 4.493004,-10.70042 2.482957,-11.82361 1.418843,-26.13031 0.650294,-47.47199 -2.128242,-6.68037 -4.138289,16.78961 -4.079157,26.78057 -4.3747673,30.56417 -5.4388791,24.00205 -6.9759615,18.97694 -8.2765651,12.29662 -12.651303,13.71544 -12.355716,5.43888 5.320622,-14.77959 8.335685,-19.92281 5.320656,-24.59323 3.547085,-31.98301 2.18739,-27.96299 -8.690384,15.37079 -9.222456,21.57816 -8.749502,13.65632 -10.936892,7.92189 -10.995995,-0.88676 -7.803615,-6.73951 7.389781,-6.44386 7.685382,-8.51309 8.394794,-19.03607 9.340675,-27.01706 7.035096,-22.76054 -4.197422,2.12825 -7.803597,9.34067 -8.690385,7.03512 -8.749507,3.90181 -11.232485,0.94588 -9.813634,-4.67035 -1.359719,-2.71943 16.61223,-10.87779 10.404826,-13.12426 8.808635,-20.277562 3.310621,-7.626271 -3.960928,-7.21242 c 0,0 -6.207425,3.724473 -6.443889,3.783594 -0.236367,0.05887 -9.695407,3.015036 -9.695407,3.015036 l -10.936866,-0.768584 -7.508052,-5.143302 -2.246495,-10.818613 11.646313,-1.300619 7.035067,-5.202448 13.774576,-25.184367 8.453904,-9.754527 -34.111255,-1.35971 -14.483978,-7.094184 -4.906811,-8.3357122 -0.236354,-5.8526851 24.179382,4.9659423 28.672378,-1.0641279 7.567124,-3.4288623 -16.257519,-9.8136608 -0.768548,-5.616251 21.578172,1.4189 21.6373104,-0.295638 9.2224554,-2.010004 -0.76854714,-12.592199 10.46395534,8.926832 20.57314,15.489031 4.493018,6.6212466 -1.714438,5.67537103 -3.310625,4.31564287 -13.478984,2.3056425 -3.25149,18.681374 -2.660342,9.636288 -7.0350659,-5.497985 -12.0601265,-8.57216 -2.8968036,3.724428 0.8276357,19.627249 7.3306909,18.622326 11.4689502,10.109195 14.5430982,3.015027 8.513028,-2.542072 8.808636,-8.217459 10.936869,3.428862 11.350727,7.862762 6.503008,-11.055106 -3.133266,-0.650334 9.518052,-9.340712 -8.985994,-2.305599 6.443903,-6.562114 12.060141,-7.212451 -6.089203,-4.670346 4.079171,-7.035067 10.818641,-3.015028 20.041104,-4.49299 7.33066,-6.562113 -6.85773,0.354657 L 88.861992,12.69063 74.910085,16.651604 63.914086,18.60249 c 0,0 -7.448913,-2.128271 -7.685375,-2.128271 -0.236363,0 -7.803631,-6.32568 -7.803631,-6.32568 l -1.00501,-4.6702898 4.492994,-9.104218 3.724442,10.6412698 6.32568,4.965943 8.39479,0.472952 10.759536,-4.8477616 7.98097,-6.0300415 0.768534,-2.12820026 V -6.16804 L 72.368011,-2.0888697 66.810864,4.2367527 64.268789,0.33495318 64.623502,-10.30633 l 9.991005,-7.508019 9.577141,-5.025117 3.133295,-6.562114 7.035065,-2.719419 32.574182,2.542119 16.43487,-0.59122 6.56214,-1.123246 -2.48296,4.197408 -13.77459,8.335642 8.15833,8.276579 6.97599,3.4879813 11.94188,0.1774575 -2.54208,4.670375 -9.69541,6.20737 3.96093,6.2074272 8.69038,11.587175 10.40482,3.133294 -4.37475,3.842724 -6.503,1.714395 -7.98097,-2.364704 -2.01002,10.81867 2.48296,4.492975 9.28158,6.325609 -5.7936,3.015042 -7.56715,0.532072 -4.67035,-1.418829 -6.73947,-8.749533 -7.0942,13.183389 15.73512,19.312146 13.54415,-9.196643 7.77534,-0.250767 6.10325,7.1901 11.20318,2.340979 10.70154,-1.504921 9.69829,-6.270434 5.8524,-9.61467 5.35079,-14.798253 1.00325,-13.544147 -1.5049,-8.527818 -10.19989,5.350795 -11.03599,9.196647 -3.59504,-17.640866 -1.67213,-11.8720231 -13.71137,-2.4245527 -3.84586,-5.2671959 0.16735,-6.3540318 3.34421,-5.1835695 23.24245,-16.386749 7.44093,-6.604871 v 11.955623 l 14.2966,2.926227 38.37508,-1.588525 -2.09012,5.936026 -15.71789,9.113049 5.76879,2.5917916 23.74409,2.2573557 12.37366,-1.6721241 18.72772,-4.0130779 -0.1671,6.354046 -3.76226,6.437645 -8.36058,6.0196227 -14.29659,3.344236 -26.8375,1.086893 7.19009,7.691732 6.60487,12.206446 8.86222,14.881865 6.35405,4.849132 11.78845,1.839321 -1.67211,8.527821 -7.27373,6.521254 -13.96216,1.254074 -15.3835,-7.942542 -1.42131,9.531071 12.45727,29.42926 10.86877,12.79171 13.79499,8.44421 -3.09342,4.93275 -9.94911,2.9262 -12.37367,-2.09014 -10.70158,-6.7721 -9.53105,-9.78188 -6.63452,-10.05225 5.32065,18.68138 15.72546,45.04813 8.63129,15.25252 10.7595,8.51302 -4.02003,6.85775 -8.98597,1.89178 -10.05012,-2.01003 -8.7495,-8.63124 -23.29262,-47.53111 0.94589,22.93792 4.96594,37.48097 4.02002,20.4549 8.0401,23.76562 6.97597,14.77949 -8.27655,-2.3647 -14.66135,-12.29662 -11.11422,-15.72546 -9.10423,-26.83969 -8.15832,-50.36875 -6.76483,-41.51549 -2.46638,2.6754 -0.41801,22.53178 0.79424,42.68081 1.33768,18.3933 4.84915,15.88513 -4.48518,0.007 -10.87776,-5.97094 -5.85271,-11.52813 -3.96094,-29.85473 -1.06412,-45.16637 -2.83767,4.72948 -1.77355,30.85975 -8.51304,-6.08919 -5.86581,-12.14628 -1.50492,-26.67028 -4.93276,9.78189 -1.7557,13.96219 3.09342,14.38022 3.67867,6.18685 7.10647,4.68192 1.4213,4.43111 -4.01307,0.50162 -1.00326,8.1098 -7.94258,-7.0229 0.75247,7.1065 4.76552,10.28353 5.26719,7.44092 6.18682,4.76551 9.61469,0.91969 -0.0837,5.18358 -8.6114,8.19335 2.42456,6.27044 9.31485,15.34181 4.49299,1.53708 19.15431,-7.56713 6.83425,-0.45153 6.18685,6.18683 -5.01637,9.86551 h -5.18357 l -3.88766,-4.93276 -13.33514,3.0098 8.15157,3.13521 11.03599,7.14833 1.75572,13.16792 -10.32534,-0.79425 -9.32205,-11.03598 -3.72045,-0.0415 -0.91969,5.05814 7.02291,10.61795 -5.18355,6.27045 -11.24502,-9.02942 1.4213,-13.58596 -8.19334,-4.22212 -7.27374,3.26066 -5.30898,4.43109 h -10.4507 l -1.74231,-6.50247 5.58784,-9.67848 h 14.46417 l 1.74922,-3.02976 -2.08367,-7.45957 -6.01962,-7.85894 -3.42785,4.18027 -9.02942,2.92623 0.33442,-10.11633 -2.34095,-9.53106 -5.68522,-10.28353 -2.67538,3.09342 -0.83606,11.20319 1.67213,3.34424 4.01308,2.9262 -4.84915,6.27045 -2.92619,7.85894 -1.17051,22.07195 0.66886,19.98182 6.01963,12.29008 7.52453,4.01308 13.12613,-0.41804 -1.58853,5.43438 -5.43438,4.59833 -6.60486,3.51145 5.85242,11.78844 9.19665,7.44093 9.53107,2.42455 4.68192,-1.00325 2.59178,-2.92623 0.58522,-2.09014 -0.16733,-6.93928 5.6852,4.2639 4.43113,10.03271 -0.66886,7.77534 -3.67864,5.4344 -9.11304,3.00979 -12.70813,-1.42131 -16.30313,-7.77534 -9.61468,-6.27045 1.00328,10.70158 2.67537,4.43109 9.69831,7.02291 -5.60163,2.42456 -12.9589,-1.25408 -6.52127,-2.25736 -1.50489,13.87858 -2.84261,10.70157 -4.84914,10.86875 -6.437636,-13.54418 -4.180317,-21.65389 -13.711373,3.67865 -10.785144,-2.17376 8.778612,-6.27044 4.096704,-4.01308 1.003253,-8.69502 0.08374,-3.92948 z"
       id="path929" />
    <g
       id="g887"
       transform="matrix(2.5279262,0,0,2.5279262,224.02086,-1116.5141)"
       style="fill:#000000;fill-opacity:1">
      <path
         style="fill:#000000;fill-opacity:1;stroke-width:0.264583"
         d="m -47.995437,594.62894 c -1.174705,-1.81475 -3.859115,-11.29097 -3.859964,-13.62604 -2.62e-4,-0.71664 0.154516,-0.71108 -1.731296,-0.0623 -2.372241,0.81617 -4.035825,0.92492 -6.165385,0.40305 -2.143638,-0.52533 -2.535592,-1.01725 -1.336754,-1.67769 3.496344,-1.92616 4.399283,-3.04271 4.652375,-5.75304 0.0877,-0.9391 0.08182,-1.70745 -0.01304,-1.70745 -0.09488,0 -1.147492,0.67154 -2.339149,1.49232 -6.919093,4.76565 -13.080585,5.65276 -16.489781,2.37414 -1.985693,-1.90964 -2.187652,-4.38587 -0.612487,-7.50973 1.142617,-2.26603 3.340741,-4.26311 3.98412,-3.61973 0.07993,0.0799 0.03517,0.63565 -0.09948,1.23494 -0.317011,1.41091 -0.08883,2.38514 0.756666,3.23064 0.569663,0.56966 0.923128,0.68072 2.166027,0.68054 3.087005,-5.3e-4 6.252461,-2.36944 8.192601,-6.1313 0.638752,-1.23851 0.764691,-1.70215 0.536913,-1.9766 -0.163676,-0.19721 -0.454794,-0.35856 -0.646938,-0.35856 -0.399991,0 -2.125744,-0.94688 -2.855597,-1.5668 -1.001083,-0.8503 -2.083189,-3.5754 -1.608318,-4.05027 0.08196,-0.082 0.885632,0.0251 1.785938,0.23787 3.94031,0.9313 6.769833,-0.61639 8.105508,-4.43355 0.875588,-2.50231 1.136258,-5.70774 0.944827,-11.6185 -0.238956,-7.37808 -0.746448,-9.33635 -2.765899,-10.67276 -1.257506,-0.83218 -1.378066,-1.53069 -0.38201,-2.21332 1.61051,-1.10374 1.953048,-1.59663 1.930905,-2.77845 -0.03135,-1.67312 -0.570415,-3.51776 -1.028015,-3.51776 -0.221763,0 -0.881279,0.97776 -1.540139,2.28332 -1.299409,2.57483 -1.685052,4.79491 -1.296297,7.46252 0.123737,0.84906 0.173053,1.59567 0.109595,1.65913 -0.310247,0.31025 -3.01122,-0.57682 -4.207473,-1.38184 -1.578964,-1.06256 -1.664962,-1.02597 -3.07971,1.31047 -0.931757,1.53878 -1.165863,2.97301 -0.55317,3.38894 0.216765,0.14715 1.456296,0.18229 2.973607,0.0843 l 2.601894,-0.16803 0.765104,0.85697 c 0.420809,0.47134 0.972746,1.40067 1.226526,2.06519 0.253783,0.66452 0.673399,1.62399 0.932479,2.13217 0.673878,1.32177 0.592495,1.99927 -0.467931,3.89549 -1.199931,2.14567 -1.963642,2.19828 -1.975477,0.13608 -0.0068,-1.18125 -0.366327,-1.45447 -2.076839,-1.57819 -1.434463,-0.10376 -1.754066,-0.24445 -3.197358,-1.40747 -1.428705,-1.15126 -1.744514,-1.29218 -2.895856,-1.29218 -1.667108,0 -2.498183,0.62435 -2.499016,1.8774 -2.65e-4,0.4954 0.0939,1.7374 0.209401,2.76001 0.199816,1.76912 0.176348,1.89928 -0.483975,2.68403 -0.452023,0.53719 -0.691947,1.13428 -0.688163,1.71259 0.0062,0.94404 0.801873,2.95066 1.289555,3.25207 0.160674,0.0993 0.292135,0.35211 0.292135,0.5618 0,0.50974 -1.890086,0.51202 -2.873497,0.003 -0.934008,-0.48299 -4.221856,-3.95839 -4.542417,-4.80153 -0.310973,-0.81792 0.04037,-1.76287 1.107236,-2.97797 0.448966,-0.51134 0.964965,-1.28327 1.146659,-1.7154 0.325827,-0.77491 0.257617,-1.76898 -0.12138,-1.76898 -0.551736,0 -2.094502,1.36447 -2.852248,2.52262 -1.023937,1.565 -1.526921,1.97419 -2.432111,1.97857 -0.911421,0.004 -1.918843,1.57309 -2.078707,3.2368 -0.06919,0.72005 -0.254045,1.25784 -0.432369,1.25784 -0.171331,0 -0.736372,-0.38916 -1.255651,-0.8648 -1.345068,-1.23204 -1.501841,-2.44614 -0.628497,-4.86725 0.371515,-1.02993 0.677236,-2.21538 0.679381,-2.63434 0.0062,-1.21389 0.572879,-2.03558 1.89379,-2.74611 0.676333,-0.3638 1.885664,-1.10794 2.687405,-1.65365 0.801737,-0.5457 1.675654,-0.9958 1.942036,-1.00023 0.916382,-0.0152 -0.245774,-0.4769 -1.679093,-0.66704 -1.302613,-0.1728 -1.367642,-0.14931 -2.234949,0.80699 -0.881126,0.97155 -0.914223,0.9828 -2.429214,0.82594 -1.982983,-0.20531 -2.951739,0.20152 -4.33592,1.82087 -1.432018,1.67532 -1.772047,1.45011 -1.610532,-1.06665 0.146743,-2.28655 1.00493,-3.99221 2.3817,-4.73365 0.490169,-0.26397 1.163018,-0.95221 1.495221,-1.52943 1.339347,-2.32716 3.635518,-2.36175 8.384162,-0.12628 3.165089,1.49 4.20193,1.74145 5.130853,1.2443 0.622911,-0.33337 3.034974,-4.09534 4.023127,-6.27467 l 0.7679,-1.69357 -1.446482,-1.322 c -1.447549,-1.32298 -1.911075,-2.21017 -2.061395,-3.94551 l -0.08022,-0.92604 1.311651,0.0852 c 0.72141,0.0468 1.852504,-0.065 2.513542,-0.24857 1.721704,-0.47807 3.896886,-2.72075 5.108231,-5.26676 1.126556,-2.36779 1.863275,-4.50047 1.632365,-4.72541 -0.09213,-0.0897 -0.618294,0.34284 -1.169262,0.96131 -1.497849,1.68135 -1.855902,1.45802 -1.855902,-1.15756 v -1.44502 l -0.992187,0.0776 c -0.886518,0.0693 -1.00017,0.007 -1.067139,-0.58386 -0.09914,-0.87495 1.181722,-2.40668 2.968064,-3.54939 1.998546,-1.27845 2.714898,-3.09119 3.197884,-8.09227 0.160176,-1.65856 -0.227978,-5.11329 -0.948727,-8.44407 -0.529061,-2.44493 -0.905981,-1.00485 -0.928973,3.54927 -0.02294,4.54256 -0.487159,6.67161 -2.067018,9.47983 -1.157129,2.0568 -4.108659,4.93997 -5.057113,4.93997 -0.185664,0 -0.291902,-1.75494 -0.316334,-5.22553 -0.02024,-2.87403 -0.142774,-6.05895 -0.272317,-7.0776 -0.20158,-1.5851 -0.263572,-0.89857 -0.430032,4.7625 -0.272233,9.25817 -1.110838,19.26929 -1.802017,21.51221 -1.152628,3.74033 -2.310389,5.30563 -5.092321,6.88483 -1.727359,0.98055 -2.253798,1.15151 -3.666347,1.19062 -1.48072,0.041 -1.657343,-0.01 -1.727248,-0.49866 -0.05154,-0.36026 0.148878,-0.66568 0.592669,-0.90319 1.280692,-0.6854 2.266207,-3.66755 2.800528,-8.47435 0.431797,-3.88449 0.673478,-30.65852 0.273269,-30.27366 -0.163409,0.15714 -0.647792,2.65745 -1.076404,5.55625 -0.428612,2.89879 -1.146564,7.59225 -1.595451,10.42991 -0.448887,2.83765 -0.929214,5.87375 -1.067393,6.74687 -0.138178,0.87313 -0.425227,2.77813 -0.637884,4.23334 -0.95091,6.50705 -3.20004,15.00422 -4.853707,18.33721 -2.068989,4.17007 -7.958212,10.74169 -10.86049,12.11891 -1.480167,0.70238 -3.574447,1.39489 -3.798897,1.25618 -0.36246,-0.22402 -0.2149,-0.99912 0.37059,-1.94668 2.0471,-3.31303 4.986962,-10.86098 6.028587,-15.47812 0.734695,-3.25664 2.032421,-11.07145 2.37258,-14.2875 0.319072,-3.01667 1.020072,-10.86346 1.181349,-13.22366 0.107272,-1.56987 0.104933,-1.57595 -0.305038,-0.79375 -0.227227,0.43353 -1.282597,2.837 -2.345267,5.34103 -4.009031,9.44672 -6.650091,13.51608 -9.809571,15.11461 -3.27639,1.65768 -6.64246,1.11648 -8.61088,-1.38447 -1.08023,-1.37248 -0.97314,-2.13962 0.39622,-2.83821 2.10509,-1.07395 3.95093,-3.30413 5.69982,-6.88668 1.46462,-3.00024 2.22894,-5.02537 5.4767,-14.51116 1.42043,-4.14865 3.08121,-9.67759 2.81288,-9.36438 -0.11132,0.12994 -0.60867,0.77203 -1.10523,1.42688 -2.42374,3.19636 -5.28732,5.52852 -8.31945,6.77554 -1.59815,0.65727 -2.17857,0.75807 -4.23333,0.73519 -2.72026,-0.0303 -4.20349,-0.54643 -5.6224,-1.95649 -1.12226,-1.11526 -1.11122,-1.77207 0.0379,-2.25219 3.30766,-1.38203 6.67995,-4.1936 8.66118,-7.22105 1.36839,-2.09101 1.94934,-3.24962 3.67326,-7.3258 0.61545,-1.4552 1.35773,-3.15573 1.64951,-3.77894 0.5081,-1.08526 0.51075,-1.15495 0.0626,-1.65009 -0.25732,-0.28435 -0.48062,-0.86372 -0.49621,-1.28751 -0.0315,-0.85658 -0.13364,-0.83635 -2.01273,0.39875 -2.28075,1.4991 -5.76377,1.92389 -8.45246,1.03084 -2.90864,-0.96609 -4.90626,-3.49927 -4.72721,-5.99455 l 0.0828,-1.15391 2.38125,-0.13304 c 3.76966,-0.2106 4.93854,-1.13953 7.15695,-5.6878 2.02252,-4.14665 3.81346,-7.15908 4.86887,-8.18966 0.58908,-0.57522 1.07105,-1.12833 1.07105,-1.22913 0,-0.10081 -2.35148,-0.2413 -5.22552,-0.3122 -7.46354,-0.18414 -10.18597,-0.9229 -12.97109,-3.51982 -1.49942,-1.39809 -2.44089,-3.42824 -2.44089,-5.26341 0,-1.13196 -0.0216,-1.13021 3.51139,-0.28586 5.21913,1.24734 5.82589,1.3237 10.51153,1.3229 4.41757,-8e-4 8.22781,-0.47236 9.51076,-1.17716 0.2674,-0.1469 -0.46986,-0.62453 -2.44807,-1.58595 -3.22091,-1.56539 -3.96799,-2.32465 -3.83768,-3.90028 0.0788,-0.95276 0.12705,-0.99868 1.14061,-1.08567 0.58209,-0.05 3.55602,0.11404 6.60874,0.36445 5.885995,0.48282 8.243176,0.41578 11.297002,-0.32131 l 1.854401,-0.44758 -0.151686,-1.33987 c -0.510656,-4.51073 -0.51272,-4.64715 -0.07025,-4.64715 0.233341,0 0.600135,0.34011 0.815099,0.7558 0.746249,1.44309 3.234822,3.57029 7.805957,6.67244 4.958469,3.365 6.468452,5.31803 5.859653,7.57893 -0.59954,2.22652 -1.850035,3.09655 -4.899768,3.409 -1.716538,0.17587 -2.528512,0.58205 -2.528512,1.26486 0,0.18076 -0.175832,1.66178 -0.390734,3.29116 l -0.390734,2.96251 1.13429,1.91546 c 0.623858,1.0535 1.930783,2.90077 2.904275,4.10503 0.973492,1.20427 1.769986,2.37104 1.769986,2.59283 0,0.90813 -0.863465,1.94838 -2.58436,3.11348 -1.001035,0.67773 -2.108991,1.22806 -2.462122,1.22295 -1.156013,-0.0168 -4.079632,-0.95999 -4.154443,-1.34035 -0.04743,-0.24113 0.525518,-0.58472 1.643764,-0.98575 1.807998,-0.6484 3.061065,-1.46147 3.056546,-1.98329 -0.0016,-0.17134 -0.745625,-0.8473 -1.653646,-1.50215 -2.569827,-1.8533 -4.100142,-3.38886 -4.572863,-4.58854 -0.652526,-1.65601 -4.122184,-4.15235 -4.629787,-3.33103 -0.759122,1.22828 -0.409766,6.40814 0.687601,10.19492 0.787392,2.71712 1.609784,4.33223 3.130886,6.14881 2.207462,2.63625 4.603877,3.74775 8.074745,3.7452 3.060377,-0.002 3.863129,-0.32423 5.765192,-2.31244 1.592797,-1.66493 1.689359,-1.72154 2.704221,-1.58542 1.279163,0.17157 3.55558,1.2952 5.302081,2.61707 2.725436,2.06281 2.53337,2.02936 3.303564,0.57531 0.372152,-0.70258 0.856231,-1.52512 1.075735,-1.82786 0.371824,-0.51283 0.358812,-0.54899 -0.190442,-0.52917 -1.387499,0.0501 -0.534604,-1.33213 2.150404,-3.48494 l 0.639786,-0.51297 -1.155824,-0.18482 c -1.277017,-0.20421 -1.843538,-0.55544 -1.843538,-1.14298 0,-0.7387 2.865224,-3.20073 4.888773,-4.20082 1.094716,-0.54104 1.990394,-1.07302 1.990394,-1.18217 0,-0.10915 -0.347961,-0.31977 -0.77325,-0.46802 -1.208281,-0.42121 -1.462818,-1.15934 -0.861182,-2.49733 0.97926,-2.17779 1.83827,-2.59408 6.926099,-3.35653 4.774525,-0.71549 6.33032,-1.21556 7.90556,-2.54103 1.109321,-0.93344 1.039595,-1.16872 -0.259832,-0.87676 -0.741831,0.16668 -2.24609,0.11589 -4.751073,-0.16041 -2.01605,-0.22237 -4.288163,-0.40432 -5.049136,-0.40432 -1.372015,0 -4.613095,0.67168 -5.121561,1.06139 -0.145521,0.11153 -1.332262,0.46832 -2.6372,0.79286 -3.951885,0.98283 -5.958959,0.53097 -8.79629,-1.98033 -1.84649,-1.63432 -1.971508,-2.34556 -0.875194,-4.97902 1.331952,-3.1995 1.691145,-3.21169 2.514275,-0.0854 0.572984,2.17627 1.533162,3.38502 3.19219,4.01861 2.176351,0.83116 4.974473,-0.0682 8.789329,-2.82514 1.564544,-1.13065 1.913932,-1.51406 1.913932,-2.10027 0,-1.26574 -0.47194,-1.38588 -3.148925,-0.80162 -1.326949,0.28961 -2.826285,0.72285 -3.331853,0.96276 -0.960266,0.45568 -1.797643,1.58886 -2.089232,2.82726 -0.200888,0.85317 -0.816079,0.95237 -1.220452,0.1968 -0.455655,-0.8514 -0.89676,-4.53334 -0.681307,-5.68691 0.29914,-1.60165 2.098728,-3.18112 5.250323,-4.60814 2.431356,-1.1009 2.598615,-1.22807 2.88871,-2.19632 0.397158,-1.3256 1.630283,-2.5201 2.982973,-2.88954 1.158439,-0.31638 6.25815,-0.12477 8.345596,0.31358 0.654844,0.13751 3.095625,0.32333 5.423959,0.41294 3.29888,0.12697 4.758962,0.069 6.614583,-0.26259 2.968083,-0.53039 3.571875,-0.53631 3.571875,-0.035 0,0.959 -4.003955,4.10652 -6.049981,4.7559 -0.310531,0.0986 -0.564602,0.2757 -0.564602,0.39364 0,0.44072 3.452077,3.22476 4.6624,3.76015 1.2943,0.57253 2.060713,0.58031 6.119371,0.0621 1.157766,-0.14782 1.389062,-0.10863 1.389062,0.23532 0,0.58828 -3.307857,3.49623 -4.957355,4.35804 -0.765262,0.39983 -1.391671,0.78972 -1.392015,0.86643 -2.65e-4,0.0767 0.34091,0.51341 0.758349,0.97045 0.417436,0.45703 1.314968,1.6673 1.994514,2.68948 1.726983,2.59776 2.580523,3.07393 5.370232,2.99592 2.57506,-0.072 2.761438,0.1776 1.219123,1.63268 -2.142971,2.02178 -4.585785,2.70054 -6.395781,1.77715 -0.612222,-0.31233 -1.213466,-0.50586 -1.336098,-0.43007 -0.287983,0.17798 -0.817507,2.28025 -0.816229,3.24052 0.0019,1.34775 0.860692,2.30125 3.142094,3.48816 1.18595,0.617 2.148583,1.28963 2.148583,1.5013 0,0.21091 -0.04205,0.38348 -0.09345,0.38348 -0.0514,0 -0.914085,0.29766 -1.917083,0.66146 -2.245958,0.81464 -4.588116,0.8837 -5.931094,0.17487 -0.507052,-0.26763 -1.335722,-1.0379 -1.841489,-1.71172 l -0.919575,-1.22513 -0.452009,0.92927 c -0.248605,0.51111 -0.81706,1.34506 -1.263237,1.85322 -0.446175,0.50817 -0.811229,1.08926 -0.811229,1.29131 0,0.46272 0.949174,1.60249 3.307292,3.97138 1.018646,1.0233 2.061742,2.13131 2.317988,2.46225 l 0.465905,0.60171 1.386178,-1.03557 c 1.709428,-1.27705 3.75052,-2.3152 5.020199,-2.55339 1.190406,-0.22332 2.161797,0.30032 3.172156,1.71001 1.157783,1.61537 2.236843,1.99845 5.629241,1.99845 2.610091,0 3.067939,-0.0738 4.436936,-0.71533 2.1803805,-1.02173 4.1733598,-3.15226 5.4532685,-5.82964 1.6728943,-3.49945 2.6618724,-8.56829 2.2753479,-11.66192 -0.258826,-2.07157 -0.4412007,-2.27242 -1.5048839,-1.6573 -1.7344813,1.00303 -2.9222224,2.11617 -3.3869895,3.17423 -0.5687722,1.29484 -1.9838776,2.77344 -3.822047,3.99355 -0.742846,0.49307 -1.634577,1.19875 -1.981626,1.56816 -0.605186,0.64419 -0.611962,0.6927 -0.165655,1.18586 0.255937,0.28281 1.350735,0.83712 2.432883,1.2318 2.1138598,0.77097 2.3924528,0.97198 1.8822488,1.3581 -0.4294978,0.32504 -3.4547628,1.13479 -4.2396328,1.13479 -0.620221,0 -3.340368,-1.83171 -4.264409,-2.87159 -0.894183,-1.00628 -0.613082,-1.98089 1.215305,-4.21359 1.742004,-2.12721 2.725629,-3.54453 3.499385,-5.04232 0.430091,-0.83254 0.430794,-1.0731 0.01238,-4.23333 -0.243985,-1.84285 -0.541059,-3.4548 -0.660164,-3.58211 -0.119105,-0.12731 -1.221698,-0.37992 -2.450203,-0.56137 -1.526294,-0.22542 -2.492968,-0.52162 -3.052522,-0.93532 -1.779035,-1.31529 -2.179865,-3.92983 -0.874869,-5.70661 1.044295,-1.42184 1.483524,-1.7851 5.854719,-4.8421 3.887409,-2.71866 6.2798457,-4.79853 7.0823429,-6.15706 0.2431362,-0.41159 0.6073828,-0.74835 0.8094345,-0.74835 0.2977806,0 0.3344704,0.41346 0.1936962,2.18281 -0.09552,1.20055 -0.2363021,2.50963 -0.3128513,2.90908 -0.1661213,0.86686 0.2662608,1.08351 3.333967,1.67053 2.5266624,0.48349 4.01160464,0.47864 9.9223356,-0.0324 2.6318977,-0.22757 5.3771321,-0.3764 6.1005191,-0.33073 1.312466,0.0829 1.315424,0.0851 1.397524,1.07787 0.125743,1.52042 -0.625255,2.32329 -3.514439,3.75715 -1.386261,0.68798 -2.5794339,1.34627 -2.6514905,1.46287 -0.3621353,0.58594 3.9036095,1.35944 8.3326125,1.51093 4.151996,0.14201 6.678044,-0.15414 11.761881,-1.37896 1.502788,-0.36206 2.864421,-0.65829 3.025854,-0.65829 0.476245,0 0.33813,1.97757 -0.247417,3.54259 -0.975011,2.60595 -3.338915,4.38496 -7.264276,5.46688 -1.750946,0.48261 -3.042396,0.60566 -7.474479,0.7122 -2.946797,0.0708 -5.357813,0.19288 -5.357813,0.27122 0,0.0783 0.595313,0.77189 1.322917,1.54123 0.727604,0.76933 1.322917,1.56993 1.322917,1.7791 0,0.20918 0.182374,0.53168 0.405275,0.71667 0.222904,0.18499 1.264701,2.05423 2.315104,4.15385 2.973057,5.94276 3.821372,6.70434 7.730663,6.94026 l 2.38125,0.14371 0.08056,1.10807 c 0.10894,1.49847 -0.822716,3.58809 -2.079294,4.66367 -1.429075,1.22324 -3.192677,1.77938 -5.694492,1.79573 -2.374114,0.0155 -3.693816,-0.38914 -5.800522,-1.7786 l -1.322916,-0.87252 -0.157427,0.74584 c -0.08658,0.41021 -0.338249,1.004 -0.559255,1.31953 -0.373521,0.53327 -0.302507,0.81082 1.008017,3.93973 4.040966,9.64793 6.431968,12.75463 11.9462,15.52202 1.328123,0.66654 1.917673,1.11082 1.917673,1.44514 0,0.81113 -0.994706,1.80696 -2.579319,2.58224 -1.32492,0.64822 -1.798675,0.73573 -3.896271,0.71968 -2.722091,-0.0208 -4.576016,-0.59619 -7.01816,-2.17808 -1.771999,-1.14781 -4.5815462,-3.93521 -5.7746371,-5.72912 l -0.8798454,-1.32292 0.1903518,1.05834 c 0.104693,0.58208 1.1139144,3.8563 2.2427142,7.27604 5.1179785,15.5051 7.3600785,20.00479 11.2078905,22.49323 0.959628,0.6206 1.744776,1.28113 1.744776,1.46783 0,0.18671 -0.388051,0.84824 -0.862338,1.47007 -2.585431,3.38972 -7.60421,3.2357 -11.0873169,-0.34028 -2.2163485,-2.27544 -4.9241367,-7.03114 -7.055075,-12.39085 -0.4339273,-1.09141 -1.3165905,-3.11547 -1.96147799,-4.49792 l -1.17251961,-2.51354 0.096248,1.5875 c 0.052935,0.87313 0.2126086,2.65906 0.3548274,3.96875 0.14221887,1.30969 0.37394889,3.92906 0.51495594,5.82083 0.39189554,5.25771 1.70047446,13.58081 2.93269196,18.65313 0.8460952,3.48288 2.7491082,8.51757 4.6659298,12.3444 1.7133174,3.42053 1.9580543,4.4918 0.9502352,4.15942 -4.1688518,-1.3749 -6.3920477,-3.00228 -9.7146403,-7.11111 -3.9153306,-4.84184 -4.7293848,-6.34039 -6.3240868,-11.64167 -1.5157503,-5.03882 -2.1882967,-8.15059 -3.2023307,-14.81667 -0.221364,-1.45521 -0.640496,-4.13411 -0.931402,-5.95312 -1.097624,-6.86329 -2.113273,-13.4348 -2.392196,-15.47813 -0.944118,-6.91639 -1.146517,-4.81586 -0.976411,10.13336 0.155832,13.69462 0.361686,17.45099 1.126623,20.55831 0.602609,2.44791 1.020826,3.27235 2.169366,4.27651 0.851016,0.74403 0.91585,0.88681 0.58415,1.28649 -0.784276,0.94499 -4.188143,0.0337 -6.821768,-1.8263 -2.133354,-1.5067 -3.816988,-5.18925 -4.309158,-9.42524 -0.4953,-4.26295 -1.030893,-12.04715 -1.06498,-15.47813 -0.01878,-1.89177 -0.111895,-4.68974 -0.206891,-6.2177 l -0.172725,-2.77813 -0.257876,2.91042 c -0.141833,1.60073 -0.233505,4.72612 -0.203721,6.94531 0.06071,4.52303 0.05447,4.53523 -1.676226,3.28152 -2.376511,-1.72154 -4.397756,-4.864 -5.301588,-8.24246 -0.33169,-1.23982 -0.455092,-2.67972 -0.442167,-5.15937 l 0.01794,-3.43959 -0.486738,1.08662 c -0.761442,1.69984 -1.2935,4.0431 -1.2935,5.6967 0,3.96234 1.208764,8.31576 2.468856,8.89172 0.900488,0.41159 3.375282,2.74035 3.63325,3.41887 0.386988,1.01784 0.05324,1.4484 -0.973428,1.2558 -0.872758,-0.16374 -0.895419,-0.14554 -0.898258,0.72137 -0.0094,2.88517 -0.658654,3.57482 -1.84917,1.96437 -0.363802,-0.49213 -0.866648,-1.02366 -1.117434,-1.18118 -0.406114,-0.25509 -0.438181,-0.19262 -0.293269,0.57133 0.272949,1.43892 1.418407,4.09522 2.454944,5.69298 1.95625,3.01545 4.071261,4.26023 6.655983,3.91736 1.089848,-0.14458 1.247595,-0.10124 1.372677,0.37707 0.350028,1.33851 -0.850977,3.6729 -2.499167,4.85764 -0.559615,0.40226 -1.017484,0.85431 -1.017484,1.00455 0,0.48687 2.115799,4.35602 3.399152,6.21601 1.233789,1.78816 1.264288,1.81071 2.430886,1.79736 0.850979,-0.01 2.021864,-0.40441 4.186232,-1.41109 4.667814,-2.17107 6.9710114,-2.09616 8.319127,0.27058 0.3202702,0.56227 0.7814099,1.08679 1.0247498,1.16561 0.7550177,0.24454 2.2865054,2.14962 2.5811877,3.21083 0.3785394,1.36321 0.3694431,4.05363 -0.013705,4.05363 -0.1635548,0 -0.7833307,-0.55208 -1.3772806,-1.22684 -1.405427,-1.59665 -2.3621233,-1.98825 -4.3498612,-1.78049 -1.5490217,0.16191 -1.5592317,0.15835 -2.3700047,-0.82526 l -0.814279,-0.98786 -1.564397,0.18157 c -1.657215,0.19234 -2.852055,0.65855 -1.70706,0.66608 0.339143,0.002 1.27259,0.45053 2.074328,0.99624 0.80174,0.5457 2.011072,1.28984 2.687405,1.65364 1.341908,0.72182 1.8877621,1.53256 1.8937893,2.81277 0.00212,0.45562 0.3022388,1.62101 0.6668744,2.58976 0.8731752,2.31981 0.7038075,3.60133 -0.6389767,4.83477 -1.161111,1.06656 -1.6115,1.10732 -1.6115,0.14585 0,-2.01331 -1.131748,-3.76857 -2.429886,-3.76857 -0.587812,0 -0.907055,-0.23861 -1.475232,-1.10264 -1.006144,-1.53004 -2.823321,-3.39527 -3.307802,-3.39527 -0.549553,0 -0.761426,0.66238 -0.462968,1.44739 0.13572,0.35698 0.792204,1.39774 1.458854,2.31281 0.932654,1.28019 1.174933,1.81272 1.050925,2.30991 -0.203737,0.81685 -3.666281,4.67969 -4.651372,5.18911 -0.694495,0.35913 -2.88252,0.54522 -2.88252,0.24515 0,-0.0755 0.357188,-0.80664 0.79375,-1.62474 1.012347,-1.8971 1.048756,-3.19783 0.114089,-4.0759 -0.672875,-0.63213 -0.677839,-0.66661 -0.4972,-3.45374 0.171437,-2.64511 0.148556,-2.84913 -0.378672,-3.37636 -0.844055,-0.84405 -3.222603,-0.80001 -4.056155,0.0751 -1.258681,1.32145 -2.604881,2.00959 -3.931335,2.00959 -1.472033,0 -2.098643,0.47318 -2.098643,1.58476 0,1.01213 -0.246047,1.59024 -0.676818,1.59024 -0.469201,0 -2.233599,-3.17367 -2.233599,-4.01763 0,-0.76401 2.428962,-5.86659 2.953914,-6.20536 0.194358,-0.12543 1.663065,-0.22805 3.263794,-0.22805 h 2.910417 l 0.08382,-0.87214 c 0.09662,-1.00532 -0.63608,-2.67087 -1.769632,-4.02265 l -0.776541,-0.92604 -0.624205,0.58238 c -0.855935,0.7986 -2.782009,1.61244 -4.057195,1.71431 -0.933127,0.0746 -1.047917,0.022 -0.970275,-0.44461 0.310306,-1.86472 0.330168,-4.38302 0.04469,-5.66608 -0.382374,-1.71857 -1.55806,-4.1744 -2.333771,-4.87491 -0.531344,-0.47983 -0.543142,-0.47223 -0.821206,0.52916 -0.155165,0.5588 -0.282781,1.75864 -0.283591,2.66632 -0.0013,1.62104 0.01619,1.66149 0.994595,2.27912 1.864958,1.1773 2.007021,1.80684 0.595845,2.64044 -1.050478,0.62054 -1.833698,1.78544 -2.307064,3.43137 -0.535802,1.86303 -0.801142,13.67421 -0.363632,16.18658 0.9916,5.69418 3.675136,8.12366 8.072686,7.30842 2.572877,-0.47697 2.623531,-0.46075 2.456222,0.78662 -0.235582,1.75641 -1.341387,3.06123 -3.415083,4.02972 -2.07563,0.96939 -2.104067,1.1046 -0.736327,3.50077 1.79401,3.14297 5.071142,5.41476 7.810966,5.41476 1.301879,0 1.582129,-0.099 2.293482,-0.81038 0.787696,-0.78769 0.806072,-0.86175 0.6565,-2.64583 -0.19086,-2.27657 0.07569,-2.35559 1.969741,-0.58392 3.56843,3.33784 3.871749,8.42001 0.635426,10.64666 -3.749694,2.57985 -9.977538,1.25697 -16.679611,-3.54301 -0.727139,-0.52077 -1.428407,-0.94685 -1.558372,-0.94685 -0.398643,0 0.0249,2.77973 0.593293,3.89389 0.637905,1.2504 1.832928,2.34499 3.547542,3.2494 0.689231,0.36356 1.253148,0.79711 1.253148,0.96346 0,0.49028 -2.115058,1.20903 -3.971922,1.34976 -1.400072,0.10611 -2.092905,0.002 -3.696957,-0.55591 -1.085694,-0.37756 -2.049738,-0.59989 -2.142315,-0.49406 -0.09258,0.10583 -0.306896,1.08538 -0.476258,2.17679 -0.628169,4.04805 -3.225292,12.43542 -3.85059,12.43542 -0.07549,0 -0.310666,-0.26789 -0.52261,-0.59532 z m 3.1511,-10.35868 c 0.3639,-1.79723 0.663458,-3.5504 0.665686,-3.89591 0.0085,-1.32507 0.347438,-1.44125 2.024393,-0.69403 1.82603,0.81365 4.28375,1.30811 4.850723,0.9759 0.310968,-0.1822 0.26611,-0.23428 -0.207232,-0.24058 -0.93399,-0.0124 -2.980769,-1.17612 -4.226433,-2.4029 -1.745382,-1.71893 -3.503835,-6.06931 -3.503835,-8.66841 0,-0.46364 -0.102738,-0.84299 -0.228306,-0.84299 -0.474544,0 -1.18178,9.22428 -1.460588,19.05 l -0.131384,4.63021 0.777672,-2.32179 c 0.42772,-1.27699 1.075406,-3.79226 1.439304,-5.5895 z m -3.408778,1.23056 c -0.202764,-6.92691 -0.520433,-11.71909 -1.00411,-15.1474 l -0.317288,-2.24895 -0.22656,1.32291 c -1.033087,6.03231 -3.155037,9.34774 -6.877474,10.74567 l -1.39478,0.52379 1.719792,-0.11335 c 1.078566,-0.0711 2.304463,-0.37392 3.287898,-0.8122 1.675249,-0.7466 1.991362,-0.65662 1.999718,0.56918 0.01103,1.61948 2.470626,11.4442 2.865017,11.4442 0.07245,0 0.04895,-2.82773 -0.05221,-6.28385 z m -11.010837,-5.31443 c 0,-0.12167 0.686504,-0.41207 1.525564,-0.64535 2.757929,-0.76678 4.765397,-2.70879 5.902158,-5.70972 0.834848,-2.2039 1.364478,-5.66263 1.260642,-8.23259 -0.08315,-2.05811 -0.194707,-2.46033 -1.267264,-4.5693 l -1.176084,-2.31253 -0.703302,1.91566 c -2.206281,6.00947 -7.563874,11.42782 -13.199332,13.34902 -4.004342,1.36513 -6.878667,0.42131 -7.338053,-2.40955 -0.123497,-0.76103 -0.06959,-0.95402 0.266478,-0.95402 0.264724,0 0.523002,0.37771 0.694963,1.01631 0.150516,0.55898 0.491228,1.21321 0.757139,1.45386 0.767012,0.69414 2.66078,0.82888 4.428213,0.31507 5.735772,-1.66743 11.323976,-7.03919 13.484069,-12.96179 0.402592,-1.10384 0.685228,-2.05311 0.628083,-2.1095 -0.05714,-0.0564 -0.799155,0.18069 -1.648915,0.52685 -3.481443,1.4182 -5.848686,1.40406 -7.571078,-0.0452 -0.44318,-0.37291 -0.805781,-0.55896 -0.805781,-0.41344 0,0.4726 1.680448,1.69657 3.373438,2.45708 0.909505,0.40856 1.653646,0.80293 1.653646,0.8764 0,0.51579 -1.243571,3.10079 -2.094532,4.35389 -1.760416,2.59232 -4.866569,4.67305 -7.429101,4.97654 -0.985292,0.11669 -1.544468,0.0235 -2.426771,-0.4045 -1.394804,-0.6766 -1.828046,-1.32739 -2.044468,-3.07112 l -0.165819,-1.33604 -1.112708,1.4014 c -1.234218,1.55443 -1.656255,2.73291 -1.658459,4.63101 -0.0027,2.28929 1.312299,3.82895 3.916818,4.5861 1.273953,0.37035 1.796521,0.39079 3.443711,0.13471 3.383719,-0.52606 7.178815,-2.33801 10.909459,-5.20867 1.991524,-1.53245 2.2441,-1.38541 2.207852,1.28529 -0.04005,2.95122 -1.062722,4.83244 -3.479837,6.40127 -1.225624,0.79548 -1.32689,0.9241 -0.727604,0.9241 0.218281,0 0.396875,-0.0995 0.396875,-0.2212 z m 23.098028,-0.70065 c -1.559521,-1.05024 -2.627043,-2.33274 -3.141367,-3.77397 -0.403976,-1.13201 -0.488447,-4.24418 -0.130545,-4.8097 0.267838,-0.42322 -0.0173,-0.57812 3.051019,1.65744 2.264558,1.64994 5.66642,3.4346 7.682241,4.0302 0.873125,0.25797 2.480468,0.47628 3.571875,0.48512 4.341267,0.0352 6.740102,-2.62488 5.821238,-6.45513 -0.284885,-1.18754 -2.152063,-4.23512 -2.594655,-4.23496 -0.101132,4e-5 -0.195453,0.54259 -0.209603,1.20568 -0.09745,4.56678 -6.341028,4.59195 -10.596266,0.0427 -1.511356,-1.61577 -3.268919,-4.65224 -3.268343,-5.64657 2.12e-4,-0.36247 0.538427,-0.73865 1.991572,-1.392 1.323351,-0.595 2.183146,-1.17187 2.563275,-1.71979 0.515652,-0.74328 0.520507,-0.77988 0.04928,-0.37157 -0.287491,0.2491 -1.093568,0.70542 -1.791279,1.01406 -1.783472,0.78891 -3.322929,0.54671 -7.635179,-1.20123 -0.428718,-0.17378 -0.4312,-0.0992 -0.04091,1.22983 2.0379,6.93928 9.955464,13.99993 15.797435,14.0877 1.720278,0.0258 1.843217,-0.014 2.579687,-0.83694 0.425331,-0.47523 0.773327,-1.15984 0.773327,-1.52135 0,-0.43143 0.148339,-0.65728 0.431713,-0.65728 0.352303,0 0.405095,0.19844 0.287007,1.07887 -0.280602,2.09203 -1.770552,3.01771 -4.5372,2.8189 -5.642488,-0.40548 -12.809032,-6.37739 -15.508274,-12.92312 -0.429869,-1.04244 -0.78158,-2.05757 -0.78158,-2.25583 0,-0.82085 -0.475474,-0.2326 -1.566616,1.93819 -1.368626,2.72283 -1.50821,3.64671 -1.091941,7.22732 0.733333,6.30792 3.211648,10.11247 7.249684,11.12926 0.681287,0.17155 1.303235,0.41633 1.382112,0.54395 0.07887,0.12762 0.343152,0.23204 0.587283,0.23204 0.244131,0 -0.172117,-0.41483 -0.924994,-0.92185 z M -47.91262,565.39249 c 0.0041,-3.45612 0.01159,-6.55175 0.01662,-6.87917 0.0053,-0.34872 0.173532,-0.59531 0.406011,-0.59531 0.341976,0 0.400806,0.96072 0.425304,6.94531 0.0281,6.86542 0.03248,6.91757 0.38045,4.53334 0.193614,-1.32658 0.545544,-3.17205 0.782071,-4.10104 0.550738,-2.16311 3.542152,-8.43595 4.022963,-8.43595 0.19988,0 0.858962,0.25281 1.464628,0.5618 1.884542,0.96142 3.93096,1.55487 5.361723,1.55487 1.106882,0 1.587172,-0.15435 2.46983,-0.79375 1.205809,-0.87348 1.519158,-0.95789 1.718844,-0.46302 0.08512,0.21094 0.141018,0.17505 0.15434,-0.0991 0.0182,-0.37427 -0.278228,-0.41412 -2.294216,-0.30838 -2.148056,0.11267 -2.419974,0.0673 -3.768494,-0.62853 -3.868992,-1.99642 -5.133277,-6.8996 -4.569992,-17.72344 0.314126,-6.03609 0.760822,-7.96716 2.16862,-9.37496 l 0.690364,-0.69036 -1.299099,-0.4614 c -1.756529,-0.62387 -3.639489,-2.44001 -4.486423,-4.32723 -0.867333,-1.93268 -1.501122,-5.53859 -1.501122,-8.54057 0,-2.17847 0.24691,-3.03296 0.675847,-2.33893 0.100782,0.16308 0.217628,1.564 0.259654,3.11318 0.178311,6.57304 2.146864,10.32672 5.994355,11.43016 0.963798,0.27642 0.946438,0.10423 -0.04096,-0.40638 -0.958864,-0.49584 -1.464408,-2.08178 -1.223674,-3.83875 0.254399,-1.85669 1.032695,-4.23607 1.38562,-4.23607 0.524425,0 1.914578,1.86038 2.866755,3.83646 1.082188,2.24589 1.562799,4.71695 1.321604,6.79508 -0.09826,0.84661 -0.122401,1.53929 -0.05365,1.53929 0.06875,0 0.644303,-0.18321 1.278999,-0.40715 2.191713,-0.77328 3.37108,-2.57615 3.039928,-4.64707 l -0.164897,-1.03119 1.39219,-0.006 c 2.318867,-0.01 4.741066,-1.56513 5.477005,-3.51715 0.43394,-1.15099 0.366411,-1.23954 -0.945264,-1.23954 -2.129702,0 -3.268723,-0.51686 -5.038529,-2.28635 -2.36039,-2.35996 -4.583314,-7.26873 -4.583314,-10.1211 0,-1.17319 0.512607,-1.04331 2.0172,0.51109 l 1.290092,1.3328 0.132292,-1.53124 c 0.129653,-1.50071 0.14995,-1.53387 1.018177,-1.66352 l 0.885886,-0.1323 -0.526492,-0.66145 c -0.289568,-0.36381 -1.137314,-1.01865 -1.883875,-1.45521 -1.112333,-0.65045 -1.495764,-1.08035 -2.123895,-2.38125 -0.42158,-0.87313 -0.911543,-2.40624 -1.088809,-3.40692 -0.314711,-1.7766 -0.330059,-1.80151 -0.652142,-1.05834 -0.892791,2.06003 -2.323044,2.50581 -3.421036,1.06626 -0.652418,-0.85536 -1.732814,-4.37134 -1.732814,-5.63916 0,-1.03862 0.750141,-0.73862 0.932777,0.37305 0.323086,1.96657 1.180897,4.47934 1.684854,4.93542 0.491871,0.44514 0.537022,0.44274 1.034635,-0.0549 0.726802,-0.7268 1.564433,-3.09685 1.85135,-5.23831 0.231862,-1.73057 0.215162,-1.82917 -0.390509,-2.30559 -0.969296,-0.76245 -1.979898,-2.99883 -2.136733,-4.72843 -0.113958,-1.25676 -0.06641,-1.5379 0.260083,-1.5379 0.282736,0 0.452154,0.40607 0.579522,1.38906 0.199361,1.53857 0.964674,3.33299 1.708679,4.0063 0.462635,0.41868 0.533324,0.30334 1.585585,-2.58716 1.398672,-3.84207 2.012283,-6.24998 2.421826,-9.50367 0.602533,-4.78693 0.08186,-6.17789 -3.832637,-10.23882 -1.533959,-1.59134 -2.789016,-3.0063 -2.789016,-3.14435 0,-0.13805 -0.06534,-0.42129 -0.145211,-0.62941 -0.08087,-0.21074 0.348565,-1.00309 0.969134,-1.78817 0.612889,-0.77536 1.318115,-2.06834 1.56717,-2.87329 0.249055,-0.80494 0.580345,-1.50604 0.736198,-1.55799 0.155852,-0.052 0.52933,0.44546 0.82995,1.10535 0.300617,0.6599 0.992812,1.66891 1.538211,2.24224 1.118939,1.17625 2.274792,1.51942 4.163605,1.23618 1.225701,-0.18381 1.650016,-0.67052 0.593548,-0.68083 -1.731796,-0.0169 -4.502201,-2.32946 -5.504128,-4.59448 -0.716663,-1.62014 -1.308893,-4.0631 -1.308893,-5.39923 0,-1.96007 0.599683,-1.15292 1.122944,1.51144 0.265168,1.35021 0.765173,3.01349 1.111121,3.69618 0.774501,1.52841 2.642245,3.29086 3.942064,3.71984 1.049313,0.3463 2.009986,0.22748 1.099912,-0.13604 -1.799105,-0.71865 -2.822223,-2.15768 -2.822223,-3.96951 0,-1.46137 0.748149,-4.065 1.220108,-4.24611 0.198104,-0.076 0.843237,0.10822 1.433631,0.40942 1.227821,0.62639 2.719888,0.68815 3.872651,0.16031 l 0.79375,-0.36345 -1.076457,-0.0215 c -2.604199,-0.052 -5.706153,-1.65623 -8.387908,-4.33798 -1.504789,-1.50479 -3.103343,-3.63306 -3.103343,-4.1317 0,-0.71309 0.785204,-0.13738 1.991251,1.45999 2.354882,3.11895 6.154002,5.72342 8.856665,6.07166 l 1.190625,0.15341 -1.440148,-0.61062 c -1.279374,-0.54246 -1.640866,-0.89123 -3.238066,-3.12417 -0.988854,-1.38245 -2.21602,-2.9021 -2.727039,-3.377 -0.511016,-0.4749 -0.929122,-0.97157 -0.929122,-1.10371 0,-0.13215 0.829146,-0.62244 1.842545,-1.08955 1.0134,-0.4671 2.055197,-1.09222 2.315105,-1.38915 0.259908,-0.29694 0.332938,-0.45855 0.162292,-0.35914 -0.836557,0.48732 -3.167478,0.6965 -4.700516,0.42183 -1.86168,-0.33356 -4.911092,-1.74164 -4.911092,-2.26772 0,-0.53131 0.396277,-0.45101 2.33104,0.47237 2.101733,1.00306 4.56788,1.26073 6.40021,0.66871 l 1.190625,-0.38468 -1.882355,-0.006 c -1.380617,-0.004 -2.172139,-0.15347 -2.969532,-0.56027 -1.275123,-0.65052 -5.336781,-4.16376 -5.329725,-4.61009 0.0027,-0.16863 1.186045,-0.94605 2.629729,-1.72761 1.443685,-0.78155 2.900021,-1.72108 3.236298,-2.08783 l 0.611418,-0.66682 -0.661458,0.15591 c -1.588368,0.37437 -6.628395,0.73838 -8.202084,0.59238 -0.945885,-0.0878 -3.883012,-0.41541 -6.526948,-0.72811 -4.079984,-0.48254 -5.024504,-0.5199 -6.243984,-0.247 -1.860825,0.41644 -2.745047,1.31875 -3.093654,3.15696 -0.463251,2.44271 -0.294487,2.71268 2.460921,3.93667 1.334572,0.59284 3.080655,1.16003 3.880184,1.26043 8.286607,1.04061 9.663716,1.85274 9.450739,5.57343 -0.299005,5.22362 -3.013408,7.3307 -10.907466,8.46699 -4.495957,0.64716 -4.901325,0.79057 -5.8961,2.08588 -0.884587,1.15182 -0.751382,1.61217 0.670579,2.3175 1.848376,0.91683 1.678392,1.32439 -1.124479,2.69609 -2.149121,1.05177 -4.894792,3.07346 -4.894792,3.60413 0,0.11435 0.833437,0.29003 1.852083,0.39041 2.117648,0.20867 2.349969,0.56151 0.992188,1.5069 -1.393712,0.97041 -3.129915,2.41486 -3.026693,2.51808 0.05258,0.0526 0.76745,-0.13555 1.588606,-0.41807 1.627293,-0.55988 2.363255,-0.27059 1.255014,0.49331 -1.645479,1.1342 -3.186076,2.80038 -3.757219,4.06347 -0.561546,1.24186 -0.62299,1.74899 -0.615958,5.08364 0.01206,5.71869 1.259211,11.01578 3.189335,13.5463 0.366432,0.48042 0.835719,0.87349 1.042856,0.87349 0.595399,0 1.148082,-1.36381 1.51071,-3.72785 0.215786,-1.40676 0.467127,-2.226 0.707427,-2.30583 0.555556,-0.18457 0.192124,3.85784 -0.48432,5.38706 -0.786514,1.77805 -1.828856,2.01311 -3.22384,0.72703 l -0.689604,-0.63576 0.251798,1.53445 c 0.31496,1.91935 0.07503,6.334 -0.454115,8.35553 -0.622707,2.379 -1.298942,3.47068 -2.711272,4.37697 -0.701765,0.45032 -1.622825,1.18084 -2.046801,1.62338 l -0.770864,0.80461 h 0.975543 0.975542 v 1.62588 1.62587 l 1.439371,-1.36129 c 0.791654,-0.74871 1.581952,-1.3613 1.756219,-1.3613 0.467482,0 0.126074,2.38652 -0.680767,4.75874 -1.792251,5.26943 -4.998749,8.44983 -8.534094,8.46462 -1.075618,0.005 -1.389062,0.0983 -1.389062,0.41582 0,1.08906 1.721792,3.10071 3.360298,3.92599 0.472541,0.23801 1.490171,0.4265 2.30264,0.4265 h 1.45588 l -0.151077,1.27562 c -0.181443,1.53199 0.299943,2.62992 1.564794,3.56895 0.690139,0.51236 2.303264,1.24084 2.747682,1.24084 0.04882,0 0.0146,-0.70949 -0.07604,-1.57665 -0.217239,-2.07843 0.266359,-4.46514 1.369259,-6.75772 0.973492,-2.02359 2.343417,-3.83646 2.899079,-3.83646 0.545023,0 1.221822,2.28332 1.384991,4.67257 0.13894,2.03446 0.110167,2.19631 -0.498708,2.80519 -0.355386,0.35538 -0.817986,0.70697 -1.027999,0.78131 -0.210013,0.0743 -0.317291,0.20608 -0.238395,0.29278 0.0789,0.0867 0.73374,-0.12056 1.455208,-0.46055 3.341826,-1.57483 4.840695,-5.01514 4.964608,-11.39512 0.04595,-2.36615 0.104026,-2.6525 0.555508,-2.73931 0.481296,-0.0925 0.496933,0.0575 0.344464,3.30382 -0.316788,6.74509 -2.144734,10.45662 -5.846125,11.87019 l -1.24229,0.47444 0.658299,0.68744 c 1.83696,1.91829 2.411593,5.78494 2.205802,14.84266 -0.106547,4.68957 -0.181395,5.35592 -0.821986,7.31781 -0.531826,1.62878 -0.997799,2.48436 -1.898954,3.48666 -1.649241,1.83435 -2.909023,2.2847 -5.817058,2.07947 -1.255803,-0.0886 -2.241548,-0.0544 -2.241548,0.0779 0,0.38924 0.475623,0.56024 0.591487,0.21265 0.07101,-0.21304 0.550294,-0.0258 1.411661,0.55132 1.212969,0.81278 1.424381,0.86576 3.023989,0.75783 1.205116,-0.0813 2.387068,-0.40518 3.949192,-1.08214 1.22614,-0.53135 2.319732,-0.9661 2.430203,-0.9661 0.273129,0 2.837723,5.08313 3.423285,6.7851 0.478613,1.39111 1.136356,4.4855 1.440053,6.7748 0.0917,0.69122 0.211479,1.25677 0.266187,1.25677 0.0547,0 0.10283,-2.82773 0.106942,-6.28385 z M -53.972285,553.568 c 0,-0.20969 0.102468,-0.44459 0.227703,-0.52199 0.411435,-0.25428 1.071523,-3.13802 1.519298,-6.63738 0.28923,-2.26033 0.450726,-5.59395 0.471043,-9.72333 0.02352,-4.78194 0.108755,-6.28378 0.356603,-6.28386 0.589566,-1.8e-4 0.677564,1.31985 0.518303,7.77483 -0.191585,7.76509 -0.80804,12.46448 -1.956263,14.91309 -0.408535,0.87121 -1.136687,1.17782 -1.136687,0.47864 z m 11.777663,-0.23741 c -1.30269,-1.98816 -2.564707,-14.07533 -2.119321,-20.29811 0.131215,-1.83327 0.28896,-2.63114 0.520195,-2.63114 0.25427,0 0.367437,1.68595 0.483957,7.2099 0.151257,7.17073 0.552331,11.282 1.378789,14.13352 0.217969,0.75206 0.535961,1.41393 0.706649,1.47082 0.340442,0.11348 0.06822,0.73368 -0.32203,0.73368 -0.13358,0 -0.425286,-0.2784 -0.648239,-0.61867 z m -5.724705,-5.1252 c -0.05491,-0.26061 -0.06639,-3.77782 -0.02551,-7.81603 0.06359,-6.28189 0.13103,-7.34219 0.467017,-7.34219 0.339833,0 0.383254,1.03884 0.322553,7.71712 -0.04922,5.41539 -0.158737,7.74662 -0.367183,7.81603 -0.163373,0.0544 -0.341966,-0.11432 -0.396875,-0.37493 z m 13.402373,-24.99718 c -1.153647,-3.33798 -2.51478,-6.5863 -3.458432,-8.25347 -1.165439,-2.059 -1.414886,-2.80965 -0.933664,-2.80965 0.837837,0 5.045099,8.8278 5.045099,10.58577 0,0.60389 -0.486387,0.95945 -0.653003,0.47735 z m -27.128248,-0.0618 c 0,-0.0612 0.368798,-1.16249 0.819552,-2.44739 1.287421,-3.66988 3.851154,-8.5539 4.49013,-8.5539 0.499513,0 0.217517,0.85601 -0.938993,2.85035 -1.058862,1.82596 -3.312356,7.25534 -3.312356,7.98052 0,0.1549 -0.238125,0.28163 -0.529166,0.28163 -0.291042,0 -0.529167,-0.05 -0.529167,-0.11121 z m -5.820833,-1.18755 c 0,-0.13224 0.766191,-0.84256 1.702649,-1.57849 2.818487,-2.21497 5.04466,-5.20862 6.812619,-9.16129 0.662162,-1.48041 1.538899,-2.2588 1.538899,-1.36627 0,0.7438 -2.627607,5.60394 -4.024136,7.44323 -2.176785,2.86693 -6.030031,5.84651 -6.030031,4.66282 z m 37.30625,-0.90606 c -1.776955,-1.39958 -3.017051,-2.75826 -4.468976,-4.89631 -1.186553,-1.74728 -3.20394,-5.73419 -3.20394,-6.33188 0,-0.82366 0.892294,-0.10358 1.365117,1.10166 1.334215,3.40095 4.550045,7.70288 7.248129,9.69607 0.792506,0.58546 1.44092,1.17978 1.44092,1.32071 0,0.56915 -1.005718,0.19315 -2.38125,-0.89025 z m -17.744543,-0.37487 c -0.0774,-2.0525 0.07973,-14.76952 0.184594,-14.93918 0.49107,-0.79457 0.626616,0.88076 0.626616,7.7449 0,6.6301 -0.05324,7.6573 -0.396875,7.6573 -0.218282,0 -0.404733,-0.20835 -0.414335,-0.46302 z m -5.122357,-16.27187 c -0.569582,-0.87051 -1.256266,-3.69777 -0.968103,-3.98594 0.404426,-0.40442 0.737987,0.0168 0.921359,1.16358 0.201946,1.2629 0.84415,2.62392 1.238107,2.62392 0.330028,0 0.923147,-1.36565 1.173752,-2.70255 0.197864,-1.05554 0.757217,-1.74788 1.041072,-1.28859 0.233072,0.37712 -0.592283,3.41671 -1.128141,4.15469 -0.590269,0.81292 -1.757286,0.83079 -2.278046,0.0349 z m 10.214189,-0.79375 c -0.503708,-0.82497 -1.101056,-2.61422 -1.104146,-3.30729 -7.94e-4,-0.1819 0.168669,-0.33073 0.376624,-0.33073 0.232817,0 0.547423,0.58457 0.818758,1.52135 0.690452,2.38376 1.23013,2.77301 1.834171,1.32292 0.197007,-0.47294 0.442577,-1.42544 0.545709,-2.11667 0.128791,-0.8632 0.312931,-1.25677 0.588007,-1.25677 0.558792,0 0.333394,2.11328 -0.402132,3.77031 -0.484995,1.09262 -0.660657,1.25678 -1.344906,1.25678 -0.603864,0 -0.909251,-0.20015 -1.312085,-0.8599 z m -5.044702,-3.87293 c -0.291883,-0.29189 -0.722267,-0.90116 -0.956408,-1.35394 -0.530934,-1.02671 -1.496645,-4.74351 -1.310661,-5.04444 0.219686,-0.35546 0.914564,0.0324 0.913643,0.51003 -0.0019,0.9418 1.149311,4.24274 1.730902,4.96349 0.500406,0.62014 0.702516,0.70991 1.080098,0.47977 0.736674,-0.44903 1.388075,-1.95581 1.857647,-4.29699 0.311714,-1.55413 0.546574,-2.16676 0.830662,-2.16676 0.318585,0 0.366102,0.25305 0.24288,1.29346 -0.221663,1.87159 -0.915233,4.08966 -1.595623,5.10287 -0.734314,1.09351 -1.983015,1.32263 -2.79314,0.51251 z m -9.73686,-0.4927 c -1.288547,-1.36652 -2.751198,-5.35781 -1.963423,-5.35781 0.16768,0 0.437119,0.32742 0.598753,0.72761 0.894016,2.21347 1.904891,4.06628 2.347864,4.30336 0.405927,0.21724 0.5822,0.15007 0.907,-0.34564 0.463412,-0.70725 0.937829,-2.96183 0.937829,-4.45686 0,-0.73225 0.11258,-1.02222 0.396875,-1.02222 0.304236,0 0.396875,0.33663 0.396875,1.44219 0,4.38127 -1.765938,6.67751 -3.621773,4.70937 z m 5.371608,-8.54535 c -1.139785,-1.35457 -2.252459,-6.07287 -1.432105,-6.07287 0.267634,0 0.52337,0.63972 0.834454,2.08735 0.4621,2.15042 1.360622,3.86577 2.024938,3.86577 0.571246,0 1.462296,-1.79736 1.979192,-3.99228 0.322432,-1.36916 0.582403,-1.96084 0.861544,-1.96084 0.496493,0 0.316537,1.44648 -0.482542,3.87864 -0.958892,2.91858 -2.449129,3.78239 -3.785481,2.19423 z m 9.071404,-0.27872 c -1.461016,-1.46102 -2.888938,-7.01185 -1.598621,-6.21439 0.124733,0.0771 0.374555,0.83648 0.555162,1.68753 0.768051,3.61923 2.268887,4.9898 3.229663,2.94935 0.244145,-0.5185 0.623303,-1.80954 0.842574,-2.86897 0.439065,-2.12137 0.571241,-2.37808 1.002416,-1.94691 0.212318,0.21232 0.166929,0.85454 -0.167042,2.36361 -0.905086,4.0897 -2.324243,5.56969 -3.864152,4.02978 z m -14.633414,-7.62089 c -1.194226,-1.24651 -2.821194,-6.63993 -2.002986,-6.63993 0.328033,0 0.58215,0.60497 1.308637,3.11544 0.329991,1.14034 0.859198,2.26303 1.298467,2.75465 l 0.741458,0.82984 0.541467,-0.54147 c 0.82397,-0.82397 1.690219,-3.42271 1.854388,-5.56315 0.112072,-1.46124 0.241458,-1.91823 0.543105,-1.91823 0.584012,0 0.281342,3.91838 -0.452388,5.85659 -1.062257,2.80605 -2.437524,3.56193 -3.832148,2.10626 z m 10.010423,-0.15305 c -0.76922,-0.76922 -1.531384,-2.45122 -2.093261,-4.61958 -0.492668,-1.90126 -0.507606,-2.66105 -0.05232,-2.66105 0.215659,0 0.526508,0.75509 0.81551,1.98096 0.515262,2.18564 1.631997,4.58807 2.326232,5.00443 1.011145,0.60643 2.215097,-1.63038 2.869793,-5.33175 0.241607,-1.36592 0.452218,-1.91822 0.731491,-1.91822 0.906457,0 -0.397354,5.61335 -1.70537,7.34218 -0.819544,1.08322 -1.933675,1.16143 -2.892073,0.20303 z m 9.095359,0.0753 c -0.955296,-1.47039 -2.31885,-7.20737 -1.829374,-7.69685 0.156906,-0.15691 0.336429,-0.23369 0.398944,-0.17063 0.06251,0.0631 0.415137,1.454 0.783609,3.09098 0.751459,3.33845 1.185442,4.43201 1.758865,4.43201 0.5284,0 1.242544,-1.59323 1.944915,-4.33902 0.399881,-1.56325 0.703982,-2.27557 0.971492,-2.27557 0.276857,0 0.362638,0.22941 0.296802,0.79375 -0.158806,1.36127 -1.33091,4.76936 -1.96487,5.71319 -0.760402,1.13208 -1.790449,1.32939 -2.360383,0.45214 z m -4.181602,-14.10413 c -0.145248,-0.38203 -0.264088,-0.85682 -0.264088,-1.05508 0,-0.19826 -0.350862,-1.35136 -0.77969,-2.56246 -0.722038,-2.03917 -0.738354,-2.91421 -0.04637,-2.48654 0.349853,0.21622 1.884389,4.96249 1.884389,5.82835 0,0.92304 -0.484227,1.09114 -0.794245,0.27573 z m -6.067491,-0.59401 c 0.03029,-1.26423 0.663572,-5.33326 0.860729,-5.53041 0.103947,-0.10395 0.307928,-0.0701 0.45329,0.0753 0.241596,0.24159 0.08256,2.25389 -0.420674,5.32282 -0.177012,1.07948 -0.918668,1.18931 -0.893345,0.13229 z m -5.229077,-0.72133 c 0.147926,-0.91156 1.37287,-3.93402 1.852271,-4.57034 0.137041,-0.1819 0.353653,-0.33072 0.481354,-0.33072 0.418534,0 0.243893,0.99133 -0.404016,2.29336 -0.349911,0.70318 -0.785476,1.78453 -0.96792,2.40299 -0.420626,1.42586 -1.186304,1.58885 -0.961689,0.20471 z m 2.941169,-30.83506 c -1.011996,-0.3125 -1.773507,-1.12282 -1.655318,-1.76142 0.271521,-1.46709 5.631096,-2.16635 7.629962,-0.99549 1.156494,0.67743 1.231596,1.55046 0.19966,2.32091 -0.579064,0.43234 -1.19616,0.55707 -3.042708,0.61504 -1.27398,0.04 -2.683198,-0.0406 -3.131596,-0.17904 z m 5.529017,-1.11431 c 0.622567,-0.23598 0.68675,-0.34063 0.390565,-0.63682 -0.194937,-0.19493 -0.931008,-0.43346 -1.63571,-0.53005 -1.237358,-0.16959 -1.271185,-0.15676 -0.986827,0.37457 0.161949,0.3026 0.220287,0.74346 0.129643,0.97967 -0.136358,0.35535 -0.03344,0.40062 0.596262,0.26224 0.418587,-0.092 1.096317,-0.2943 1.506067,-0.44961 z M -76.167284,549.2829 c 0.197659,-0.23816 0.837316,-0.64053 1.42146,-0.89415 0.584145,-0.25362 1.335694,-0.75714 1.670111,-1.11893 0.593252,-0.64179 0.600229,-0.71175 0.287092,-2.87753 -0.5304,-3.66842 0.280807,-4.84912 3.337655,-4.85794 1.578332,-0.005 1.761911,0.0591 2.699121,0.93543 1.637024,1.53075 1.926272,1.6846 3.485687,1.85397 0.818766,0.0889 1.660265,0.21097 1.869998,0.27121 0.229182,0.0658 0.593153,-0.27452 0.912214,-0.85297 l 0.530884,-0.96247 -0.751446,-1.76809 c -0.997212,-2.34635 -1.470924,-2.64372 -3.597224,-2.25815 -2.89264,0.52454 -4.491255,-0.13376 -4.484635,-1.84675 0.0035,-0.90401 1.154025,-3.31695 2.206067,-4.62665 0.767331,-0.95527 0.847939,-1.21412 0.756668,-2.42988 -0.09558,-1.27324 -0.153786,-1.37104 -0.905351,-1.52135 -1.533096,-0.30662 -1.646057,-0.22971 -2.581439,1.75759 -1.02883,2.18583 -3.39494,5.95679 -4.108863,6.54843 -0.943186,0.78165 -2.685349,0.4615 -6.085292,-1.11828 -1.74625,-0.8114 -3.621773,-1.55201 -4.167828,-1.64581 -1.193192,-0.20496 -2.609046,0.38229 -3.238738,1.34332 -0.404352,0.61712 -0.391639,0.69125 0.249166,1.45281 0.371395,0.44137 0.744704,1.12074 0.829574,1.50971 0.08487,0.38897 0.200166,0.85604 0.256204,1.03794 0.199121,0.64634 1.10394,0.31523 2.065468,-0.75585 0.849722,-0.94654 1.085495,-1.06902 1.829339,-0.95031 0.469644,0.075 1.746867,0.27489 2.838273,0.44431 2.11844,0.32885 3.519255,0.96009 3.651216,1.64532 0.06781,0.35209 -0.281602,0.43633 -2.135505,0.51485 -1.955417,0.0828 -2.349204,0.18739 -3.342209,0.88762 -0.619096,0.43656 -1.598859,1.05235 -2.177251,1.3684 -0.578392,0.31606 -1.223851,0.7176 -1.434354,0.8923 -0.646422,0.53648 -0.449979,1.40329 0.431758,1.90512 0.473244,0.26935 0.996085,0.90198 1.255098,1.51867 0.244177,0.58135 0.578155,1.05821 0.742175,1.05969 0.164021,0.002 0.902409,-0.82539 1.640864,-1.83749 1.387007,-1.90099 2.832436,-2.92232 4.135792,-2.92232 0.635905,0 0.672,0.0761 0.672,1.41609 0,1.08261 -0.152858,1.62779 -0.649108,2.3151 -0.357008,0.49446 -0.962853,1.40371 -1.346324,2.02054 l -0.697217,1.12152 0.574154,0.929 c 0.645556,1.04454 0.840308,1.11584 1.354746,0.49598 z m 58.42448,-0.46319 c 0.652714,-1.05611 0.563626,-1.39686 -0.827228,-3.16415 -1.140589,-1.44929 -1.343879,-2.03185 -1.223269,-3.50548 0.07208,-0.8807 0.182139,-1.04316 0.746017,-1.10121 1.095343,-0.11278 2.659853,1.00896 3.969448,2.84606 1.303271,1.82822 2.115968,2.32642 2.115968,1.29712 0,-0.3585 0.47193,-1.0461 1.190625,-1.73474 0.654844,-0.62745 1.190625,-1.30296 1.190625,-1.50114 0,-0.44542 -0.63922,-0.98702 -1.852083,-1.56922 -0.509323,-0.24449 -1.443667,-0.83509 -2.07632,-1.31246 -1.051066,-0.79308 -1.342031,-0.87599 -3.373438,-0.96124 -1.903092,-0.0799 -2.223159,-0.15978 -2.223159,-0.55513 0,-0.61782 1.526784,-1.26493 3.836459,-1.62604 1.018645,-0.15926 2.23249,-0.34999 2.697435,-0.42386 0.733052,-0.11645 0.981945,0.0136 1.873594,0.97928 1.303247,1.41141 1.8672039,1.34262 2.3415278,-0.28561 0.1940137,-0.66599 0.5905738,-1.42613 0.8812477,-1.68919 0.5041265,-0.45622 0.5079603,-0.51304 0.083137,-1.23221 -0.6129973,-1.03772 -1.9863195,-1.65101 -3.2063105,-1.43186 -0.531556,0.0955 -2.395215,0.84172 -4.141465,1.65831 -3.400065,1.58995 -5.138743,1.91217 -6.085292,1.12773 -0.743384,-0.61606 -3.251026,-4.63172 -4.155422,-6.65436 l -0.814363,-1.8213 -1.219338,0.10426 -1.219335,0.10425 -0.176398,1.41177 c -0.164338,1.31526 -0.12133,1.47449 0.629103,2.32919 0.95826,1.09139 2.324917,3.87855 2.325211,4.74203 5.29e-4,1.71578 -1.370179,2.33301 -4.284345,1.92917 -2.439863,-0.33811 -2.771092,-0.14223 -3.782132,2.23666 l -0.761193,1.79101 0.561142,0.94856 c 0.308626,0.52171 0.71732,0.9008 0.908209,0.84242 0.190889,-0.0584 1.012632,-0.19198 1.826098,-0.2969 1.596361,-0.20589 2.342314,-0.59549 3.490209,-1.82287 0.876128,-0.9368 2.481437,-1.26849 4.069538,-0.84086 1.998176,0.53805 2.488322,1.80882 1.943513,5.03882 -0.312026,1.8499 -0.303387,1.92365 0.301363,2.57258 0.342429,0.36745 1.122553,0.90447 1.733608,1.19338 0.611055,0.28892 1.250712,0.69364 1.421461,0.89938 0.460142,0.55443 0.673827,0.46764 1.285552,-0.52215 z m -81.222891,-5.91889 c 2.50472,-1.90014 5.372542,-5.1679 8.0381,-9.15908 2.111491,-3.16156 4.733925,-12.24037 5.856116,-20.27373 0.405995,-2.90639 1.780831,-11.70792 2.521069,-16.13958 0.279527,-1.67349 0.698992,-4.47146 0.932143,-6.21771 0.233151,-1.74625 0.48678,-3.43167 0.563618,-3.74537 0.10578,-0.43186 -0.01029,-0.61615 -0.478028,-0.7589 -0.877523,-0.26782 -1.543775,-0.91755 -1.543775,-1.50548 0,-0.83186 -0.455774,-0.28643 -0.65287,0.7813 -0.101031,0.54731 -0.479555,1.73842 -0.841164,2.64691 -0.651327,1.63637 -1.475287,6.5284 -1.818073,10.7943 -0.507553,6.3164 -3.231309,21.82 -4.753986,27.05966 -2.284331,7.86057 -3.717232,10.5861 -7.882623,14.99354 -2.659662,2.81422 -2.828892,3.05142 -1.900242,2.6634 0.56069,-0.23427 1.44256,-0.74694 1.959715,-1.13926 z m 102.6335568,-1.6423 c -1.4973459,-1.59564 -2.97460459,-3.35181 -3.28279655,-3.90261 -0.30819461,-0.55079 -0.89341856,-1.59676 -1.3004959,-2.32436 -1.33030125,-2.37775 -3.38986815,-8.77132 -4.47460165,-13.89063 -0.7199763,-3.39786 -2.7587496,-15.86882 -3.0710717,-18.78541 -0.8380386,-7.82598 -1.3977197,-11.61064 -1.913488,-12.9393 -0.305289,-0.78646 -0.757288,-2.20716 -1.00444,-3.15712 l -0.449366,-1.72719 -0.368297,0.77587 c -0.202563,0.42672 -0.732645,0.95184 -1.177954,1.16691 l -0.80966,0.39105 0.864878,5.82666 c 1.54676,10.4205 2.900601,19.16865 3.6860614,23.81833 0.5685631,3.3657 1.8484347,8.46633 3.0370542,12.10347 1.1351551,3.47354 2.3149958,5.49645 5.491287,9.41516 2.5198097,3.10877 6.0634193,6.09061 7.2781029,6.1243 0.1194779,0.003 -1.0078668,-1.2995 -2.5052127,-2.89513 z m -99.0926248,-6.09468 c 1.35926,-2.5089 1.872686,-3.87095 3.341124,-8.86354 1.611143,-5.47777 4.17521,-19.88551 4.638014,-26.06146 0.09269,-1.23693 0.329991,-3.32052 0.527333,-4.63021 0.751276,-4.98598 0.747471,-4.6302 0.04952,-4.6302 -1.288236,0 -2.022822,-1.77165 -2.029548,-4.8948 l -0.004,-1.85208 -1.039445,1.63839 c -1.562362,2.4626 -3.380052,3.13894 -4.794385,1.78393 l -0.708438,-0.67873 -0.557995,2.06779 c -1.230157,4.55865 -5.584547,16.34541 -7.888437,21.353 -2.49311,5.41883 -5.08991,7.57174 -9.25031,7.66907 -0.78078,0.0183 -1.41981,0.11018 -1.42007,0.20425 -7.9e-4,0.29663 1.88169,1.83788 2.55968,2.09565 0.97122,0.36925 2.72542,0.29872 4.31568,-0.17354 3.19386,-0.94847 6.54692,-5.7621 10.212424,-14.66085 0.629388,-1.52797 1.670502,-4.05896 2.313588,-5.62442 0.643085,-1.56546 1.385234,-3.79788 1.649217,-4.96093 0.39629,-1.74598 0.568907,-2.11465 0.990089,-2.11465 0.418042,0 0.48187,0.13133 0.353623,0.7276 -0.08607,0.40019 -0.335549,2.8112 -0.554392,5.35782 -1.188209,13.82695 -1.513292,16.96891 -2.152292,20.80207 -0.385183,2.31058 -0.795878,4.79636 -0.912657,5.52397 -0.710898,4.4293 -3.042206,11.73286 -4.88142,15.29263 -0.51119,0.98938 -0.92402,1.88235 -0.9174,1.98437 0.007,0.10203 1.08904,-0.9456 2.405375,-2.32805 1.761252,-1.84971 2.752987,-3.17737 3.755115,-5.02708 z m 100.8588721,5.34188 c -1.1743055,-2.30424 -3.121623,-7.78049 -3.9637468,-11.14686 -0.91976049,-3.67672 -2.45306326,-13.09673 -2.7803634,-17.08148 -0.1553898,-1.89177 -0.4531334,-5.34458 -0.6616568,-7.67291 -0.2085234,-2.32834 -0.51249,-5.77554 -0.6754839,-7.66046 -0.1629913,-1.88492 -0.3180636,-3.54472 -0.3446013,-3.68845 -0.026538,-0.14373 0.1457404,-0.30413 0.3828389,-0.35644 0.3166745,-0.0699 0.4808378,0.17006 0.6185244,0.904 0.8460343,4.50975 6.6866056,18.00742 9.5395734,22.04614 2.5693234,3.63719 4.1329474,4.63021 7.2907844,4.63021 1.786676,0 2.11037,-0.0804 2.973009,-0.73836 0.532421,-0.4061 1.076685,-0.94188 1.209474,-1.19063 0.213977,-0.40083 0.05912,-0.4592 -1.361604,-0.51324 -2.036702,-0.0775 -4.484047,-1.18472 -6.025401,-2.72608 -0.74735,-0.74735 -1.580679,-2.09738 -2.5067316,-4.06102 -2.3403693,-4.96262 -6.4493618,-15.73023 -7.8071691,-20.45868 -0.45102461,-1.57066 -0.88431686,-3.07529 -0.96287166,-3.34362 -0.13089467,-0.44713 -0.20265761,-0.43056 -0.85918676,0.19843 -1.40378658,1.34491 -3.04248348,0.77116 -4.65264508,-1.62903 l -1.1211031,-1.67117 -0.1330537,2.54373 c -0.1489498,2.84764 -0.6357673,3.89104 -1.8849896,4.04011 -0.5682086,0.0678 -0.6778175,0.19391 -0.5749369,0.66146 0.2419165,1.09938 0.684575,4.56254 1.0714937,8.38289 0.4322525,4.26795 0.6746055,6.09553 1.2981782,9.78958 1.1327262,6.71027 2.3762044,13.21756 2.7554767,14.41979 0.1377235,0.43657 0.4545409,1.50813 0.7040377,2.38125 1.9375994,6.78074 3.54926907,9.94387 6.9188887,13.57933 1.2496536,1.34824 2.3236979,2.39975 2.386764,2.33668 0.063066,-0.0631 -0.3120073,-0.95189 -0.8334984,-1.97517 z M -78.36861,525.19499 c 1.088668,-0.60007 1.979396,-1.3462 2.572883,-2.15521 0.877549,-1.19623 2.040263,-4.2272 2.352378,-6.13219 0.548786,-3.3495 0.998414,-11.57784 1.134915,-20.76933 l 0.157165,-10.58288 -1.09773,0.99173 c -0.60375,0.54545 -1.235512,0.99173 -1.403914,0.99173 -0.228568,0 -0.265773,1.99535 -0.146769,7.87136 0.1637,8.08302 -0.10055,16.89163 -0.600649,20.02213 -0.672177,4.20766 -2.879445,8.85736 -4.811718,10.13608 -1.964516,1.30005 -0.744151,1.05285 1.843439,-0.37342 z m 63.229909,0.36777 c -2.587971,-2.23044 -4.403566,-6.93716 -4.971682,-12.8885 -0.230764,-2.41742 -0.357182,-20.57849 -0.168463,-24.2015 0.03194,-0.61305 -0.116297,-0.86218 -0.674071,-1.13288 -0.393255,-0.19085 -0.946171,-0.64088 -1.228704,-1.00006 -0.282532,-0.35919 -0.604996,-0.65306 -0.716584,-0.65306 -0.334052,0 0.101759,20.13227 0.546981,25.26771 0.503111,5.80316 0.747369,7.25751 1.572549,9.36311 1.201245,3.06521 2.334606,4.27545 5.238056,5.59339 1.508922,0.68493 1.554674,0.64529 0.401918,-0.34821 z m 0.08132,-2.86524 c -0.28915,-1.07441 -0.656529,-3.1441 -0.816401,-4.5993 -0.424375,-3.86279 -0.821774,-20.64061 -0.623559,-26.32604 l 0.170651,-4.8948 -0.670346,-0.98712 -0.670346,-0.98712 -0.170627,0.90951 c -0.09973,0.5316 -0.468865,1.14411 -0.888389,1.47411 l -0.717766,0.56459 v 11.81614 c 0,12.77748 0.167187,15.10707 1.356346,18.89938 0.793721,2.53123 3.058713,6.58156 3.457485,6.18279 0.05427,-0.0543 -0.1379,-0.97773 -0.427048,-2.05214 z m -64.636063,1.23335 c 0.926163,-1.17742 2.42471,-4.50612 2.945736,-6.54331 0.858583,-3.35703 1.13589,-8.55532 1.038055,-19.45894 -0.09064,-10.10215 -0.09153,-10.11598 -0.678323,-10.52676 -0.323156,-0.22623 -0.729059,-0.88361 -0.902004,-1.46085 l -0.314441,-1.04952 -0.490242,0.80613 c -0.454509,0.74739 -0.499266,1.73849 -0.614103,13.59928 -0.134609,13.90308 -0.542348,20.48382 -1.451795,23.43152 -0.622509,2.01768 -0.596646,1.85209 -0.289266,1.85209 0.134958,0 0.475332,-0.29234 0.756383,-0.64964 z m -29.930336,-7.69433 c 2.71627,-1.32896 3.90113,-3.39743 8.02706,-14.01332 3.417031,-8.79194 4.71754,-12.84712 5.81241,-18.12396 0.28684,-1.38245 0.602914,-2.8112 0.702389,-3.175 0.149723,-0.54757 -0.06533,-0.42072 -1.249024,0.73679 -0.786439,0.76904 -1.683975,1.46309 -1.994527,1.54234 -0.443375,0.11314 -0.657053,0.52314 -0.994942,1.90904 -1.108356,4.5461 -6.478186,20.19476 -8.186736,23.85766 -1.35538,2.90573 -3.36795,5.84908 -4.6985,6.87145 -1.82204,1.40003 -1.82478,1.41329 -0.25558,1.23898 0.79154,-0.0879 2.0684,-0.46772 2.83745,-0.84398 z m 127.229755,0.0925 c -2.794625,-1.85109 -5.225712,-6.39615 -8.6771722,-16.22251 -1.2267221,-3.4925 -2.5598252,-7.42156 -2.9624496,-8.73125 -0.4026244,-1.30969 -0.939001,-3.03609 -1.1919453,-3.83646 -0.252947,-0.80036 -0.6073881,-2.07568 -0.7876514,-2.83403 -0.238424,-1.00305 -0.4796764,-1.42706 -0.8851927,-1.55576 -0.3065938,-0.0973 -1.2091061,-0.78652 -2.0055814,-1.53159 -0.79647518,-0.74506 -1.36731902,-1.13403 -1.26854212,-0.86436 0.09877954,0.26966 0.47870269,1.93654 0.84427485,3.70417 0.62560997,3.02496 1.52678877,6.36703 2.36483527,8.77011 0.446286,1.27972 2.9396294,7.99661 3.5848344,9.6573 3.1115979,8.00888 4.2380642,10.29805 5.8734912,11.93593 1.414385,1.4165 3.422081,2.31666 5.214133,2.33778 l 1.169842,0.0138 -1.272876,-0.84312 z m -85.953753,-16.21593 c 0.520391,-1.91196 0.718797,-5.83574 0.492938,-9.74859 l -0.195792,-3.39201 -1.096767,0.18109 c -0.603221,0.0996 -1.150212,0.23086 -1.215533,0.29168 -0.06532,0.0608 0.03239,1.38667 0.217131,2.94634 0.184742,1.55966 0.404373,5.02596 0.488069,7.7029 0.141986,4.54135 0.17881,4.81632 0.550137,4.10762 0.21888,-0.41775 0.560798,-1.35782 0.759817,-2.08903 z m 2.46274,-0.43132 c 1.672354,-3.13765 2.236874,-6.39996 1.826059,-10.5526 -0.237737,-2.4031 -0.388052,-2.95839 -1.1062,-4.08651 l -0.83108,-1.30551 -0.183192,0.89571 c -0.100756,0.49265 -0.376814,1.0373 -0.613463,1.21034 -0.384857,0.28141 -0.403214,0.74501 -0.173897,4.39221 0.157686,2.50798 0.164139,5.0908 0.01677,6.70976 -0.210253,2.30966 -0.419605,3.29907 -1.172768,5.54259 -0.316664,0.94328 1.360019,-1.15914 2.23778,-2.80599 z m 40.757055,-8.5007 c 0.196109,-1.99857 0.305038,-3.68161 0.242064,-3.74008 -0.06297,-0.0585 -0.607586,-0.18773 -1.210257,-0.28724 l -1.095759,-0.18092 -0.189282,4.0533 c -0.219277,4.69558 0.115157,8.20631 0.997966,10.47616 l 0.589086,1.51464 0.154811,-4.10104 c 0.08515,-2.25558 0.315261,-5.73624 0.511371,-7.73482 z m -2.082316,10.97596 c -0.134268,-0.25466 -0.453496,-1.41017 -0.709396,-2.56779 -0.394451,-1.78442 -0.443542,-2.9724 -0.322519,-7.80521 0.118779,-4.74332 0.07904,-5.7594 -0.236657,-6.05159 -0.208671,-0.19314 -0.449508,-0.70168 -0.535191,-1.1301 l -0.155789,-0.77895 -0.775642,1.05471 c -1.015791,1.38126 -1.379717,3.71652 -1.198068,7.68779 0.148389,3.24412 0.640324,5.11144 1.946114,7.38719 0.891347,1.55345 2.704391,3.5643 1.987148,2.20395 z m -83.248621,-9.18541 c 0.95358,-0.35892 2.38394,-1.08414 3.17856,-1.61158 1.79338,-1.19038 4.58207,-4.17229 5.84272,-6.24753 l 0.95102,-1.56556 -0.68763,-0.63727 c -1.34922,-1.25042 -0.62877,-3.86761 1.839342,-6.68182 0.670031,-0.76398 1.157222,-1.38906 1.082652,-1.38906 -0.07457,0 -0.47076,0.12897 -0.880415,0.2866 -0.409657,0.15763 -1.195379,0.36599 -1.746029,0.46302 l -1.00121,0.17642 -2.06921,4.82511 c -2.20978,5.15291 -2.89876,6.33435 -4.76947,8.17864 -2.26871,2.23666 -6.20669,3.5407 -9.41515,3.11777 l -1.32292,-0.17438 0.75464,0.59972 c 1.86281,1.48038 5.32663,1.75768 8.2431,0.65992 z m 132.55434,0.1465 c 2.340522,-1.09356 2.274427,-1.2396 -0.571408,-1.26254 -4.078002,-0.0329 -6.309744,-1.09689 -9.150564,-4.36271 -1.051939,-1.20931 -1.731063,-2.49225 -3.4933682,-6.59937 L 6.6925071,475.79531 5.265842,475.48952 c -0.7846668,-0.16818 -1.6647927,-0.40642 -1.9558344,-0.52942 -0.3136001,-0.13253 -0.00132,0.36309 0.7667757,1.21662 2.4256657,2.69577 3.2073322,5.47774 1.8837673,6.70438 l -0.6567462,0.60865 0.9874753,1.6186 c 2.2010265,3.60777 5.3944683,6.47796 8.6267473,7.75352 2.367839,0.93443 5.487557,1.04582 7.177398,0.25629 z m -134.15488,-3.07184 c 2.74058,-1.38661 4.70694,-3.76098 6.34937,-7.66683 0.55073,-1.30969 1.41445,-3.33375 1.91939,-4.49792 0.80409,-1.8539 0.8838,-2.22844 0.64204,-3.01702 -0.32871,-1.07226 -0.12547,-1.5652 1.25193,-3.03642 l 0.9609,-1.02636 -0.79375,0.20625 c -0.43656,0.11343 -1.26385,0.27763 -1.83843,0.3649 -1.15944,0.17608 -0.81894,-0.41548 -3.87276,6.72818 -2.59667,6.07426 -5.76931,9.90918 -9.97148,12.05297 -0.6151,0.3138 -1.11837,0.64388 -1.11837,0.73351 0,0.0896 1.12581,0.10408 2.50181,0.0321 2.05267,-0.10737 2.76527,-0.26416 3.96935,-0.87337 z m 135.34551,0.80521 c 0,-0.0698 -0.506016,-0.38433 -1.12448,-0.69895 -1.634736,-0.83161 -3.943048,-2.67119 -5.353465,-4.26637 -1.77356,-2.0059 -3.152267,-4.4767 -5.416135,-9.70632 l -1.9965456,-4.6121 -1.4552084,-0.28974 c -0.8003646,-0.15935 -1.6040365,-0.38288 -1.7859375,-0.49674 -0.6221148,-0.38939 -0.3320812,0.29164 0.3007995,0.70632 0.3473397,0.22759 0.9017952,0.85109 1.2321222,1.38557 0.536419,0.86795 0.5656237,1.06849 0.2733279,1.87683 -0.3097239,0.85653 -0.2320608,1.12778 1.4489906,5.061 2.3487403,5.49542 2.5146003,5.80567 3.9676603,7.42183 2.405663,2.67567 4.589888,3.69449 7.990641,3.72716 1.055026,0.0101 1.91823,-0.0387 1.91823,-0.10849 z m -109.416646,-1.35466 c 0.635408,-0.6354 1.042416,-1.77085 1.867493,-5.2098 0.587375,-2.4482 0.837536,-3.10234 1.162484,-3.03975 0.300976,0.058 0.487262,0.6184 0.68213,2.05218 0.264858,1.94875 0.279855,1.97689 1.248833,2.3437 1.895531,0.71755 2.342621,0.31314 3.242496,-2.93298 0.645959,-2.33018 1.099738,-2.00493 1.265785,0.90727 0.110294,1.93443 0.23608,2.50001 0.618133,2.77937 1.052536,0.76963 2.511054,-0.37982 3.329236,-2.62375 0.721564,-1.97896 1.336257,-2.00147 1.574157,-0.0576 0.270849,2.21304 0.429207,2.50059 1.37654,2.49948 0.463134,-5.3e-4 1.222557,-0.23299 1.687605,-0.51655 0.824775,-0.5029 0.972434,-0.85996 1.199772,-2.90132 0.127502,-1.14491 0.65402,-0.87512 1.988396,1.01885 l 1.309947,1.8593 0.301096,-1.00496 c 0.239038,-0.79785 0.214609,-1.43738 -0.118536,-3.10309 -0.230796,-1.15396 -0.457002,-3.5864 -0.502682,-5.40541 l -0.08305,-3.30729 -1.189625,-1.07972 c -1.797984,-1.63187 -4.772834,-3.333 -6.070322,-3.47123 -1.077299,-0.11477 -1.177017,-0.0599 -2.608675,1.4365 -1.607884,1.68054 -2.469044,2.07276 -5.158523,2.34947 -5.767981,0.59345 -10.543858,-3.11458 -12.799547,-9.93768 -1.787033,-5.40549 -1.684557,-12.44838 0.181128,-12.44838 0.606883,0 2.68796,1.37828 5.064742,3.35434 1.1094,0.92236 2.139042,1.6375 2.288093,1.58919 0.580138,-0.188 0.945888,-1.58831 1.459346,-5.58724 0.293645,-2.287 0.652285,-4.37938 0.796975,-4.64973 0.322186,-0.60201 0.701945,-0.72864 3.081174,-1.02738 2.233536,-0.28046 2.864752,-0.58305 3.545631,-1.69972 1.432502,-2.34935 0.274661,-3.95867 -5.916359,-8.2233 -1.864307,-1.28422 -4.112141,-3.00384 -4.995182,-3.82138 -1.550953,-1.43591 -1.600184,-1.45966 -1.448107,-0.69863 0.08658,0.43329 0.189164,1.38312 0.227951,2.11072 l 0.07052,1.32292 -1.84735,0.62899 c -2.578481,0.87792 -6.753003,1.01521 -13.456189,0.44254 -3.41889,-0.29209 -5.34916,-0.35895 -5.51701,-0.19111 -0.16784,0.16785 -0.13212,0.52185 0.1021,1.01179 0.2678,0.5602 1.08982,1.12711 3.20279,2.20883 1.56338,0.80036 3.09475,1.71115 3.40303,2.02396 0.54575,0.55377 0.54722,0.57587 0.0556,0.83901 -0.94061,0.50339 -4.96944,1.34432 -7.80699,1.62952 -3.93367,0.39538 -8.3717,-0.0336 -13.84522,-1.33839 -1.16416,-0.27751 -2.19331,-0.50539 -2.28698,-0.50641 -0.24061,-0.003 0.2452,2.03221 0.68525,2.87021 1.05096,2.00134 3.83266,3.68777 7.33572,4.44737 2.18267,0.47328 9.09428,0.61967 13.11757,0.27783 3.12132,-0.26521 3.24328,0.12331 0.52917,1.68574 -1.80757,1.04056 -3.9026,2.75502 -3.9026,3.19367 0,0.44551 2.17744,0.74962 5.37721,0.75101 2.948971,0.001 3.381647,0.0561 3.307291,0.41879 -0.05542,0.27034 -1.122721,0.76838 -3.030711,1.41422 -3.12012,1.05614 -4.70317,1.87889 -5.12241,2.66225 -0.4905,0.91651 0.28082,1.14809 3.14714,0.94488 1.75841,-0.12467 2.6736,-0.093 2.79073,0.0965 0.0958,0.15509 -0.78474,1.21557 -1.95686,2.35662 -2.43824,2.37358 -2.75448,3.22073 -1.2023,3.22073 0.51086,0 2.00717,-0.24019 3.32512,-0.53376 2.271798,-0.50604 2.889788,-0.50855 2.889788,-0.0118 0,0.11935 -1.025608,0.79262 -2.279128,1.49615 -2.80072,1.57192 -4.86462,3.43007 -4.86462,4.37968 0,0.37021 0.2352,0.88597 0.52268,1.14613 0.77593,0.70221 2.30527,0.42291 5.631751,-1.0285 2.603259,-1.13586 3.370567,-1.29613 3.370567,-0.70406 0,0.11809 -0.922735,0.81556 -2.050521,1.54992 -4.156777,2.7067 -5.770447,4.98814 -3.483267,4.92471 0.52168,-0.0145 1.93084,-0.40142 3.131463,-0.8599 3.680733,-1.40554 3.774319,-1.16158 0.716288,1.86719 -3.747341,3.71149 -4.670671,6.82422 -2.024266,6.82422 0.877612,0 2.09164,-0.95089 4.497195,-3.52244 1.031401,-1.10257 1.771385,-1.69803 1.922438,-1.54698 0.151051,0.15105 -0.07942,1.25036 -0.598749,2.85594 -0.464381,1.43569 -0.906603,3.34441 -0.982716,4.2416 -0.126989,1.49694 -0.08175,1.68788 0.549498,2.31913 0.643913,0.64391 0.743354,0.66534 1.555779,0.33518 0.647993,-0.26334 1.216387,-0.918 2.243272,-2.58372 0.756455,-1.22705 1.541786,-2.26597 1.745181,-2.3087 0.294733,-0.0619 0.401508,0.59319 0.525952,3.22696 0.196099,4.15022 0.687991,5.17844 1.898309,3.96812 z m -2.991929,-40.46357 c 0.05112,-0.26533 0.427982,-0.57202 0.837467,-0.68153 1.276553,-0.34139 1.577496,-0.75675 1.413766,-1.95128 -0.180072,-1.31377 0.06958,-1.75784 1.201923,-2.1379 0.783217,-0.26289 0.887812,-0.41846 1.015765,-1.5108 0.159993,-1.36588 0.684874,-2.07082 2.158595,-2.8991 0.553331,-0.31099 1.006057,-0.76729 1.006057,-1.01401 0,-0.24671 -0.544489,-0.89474 -1.209974,-1.44005 -0.792787,-0.64963 -1.120288,-1.08117 -0.94986,-1.2516 0.34553,-0.34553 2.625127,1.2205 3.011723,2.06898 0.407316,0.89396 0.04207,1.50685 -1.513348,2.53942 -1.226034,0.81391 -1.333791,0.97294 -1.471422,2.1715 -0.15689,1.3663 -0.898379,2.2786 -1.851977,2.2786 -0.405673,0 -0.499856,0.24867 -0.566002,1.49441 -0.08906,1.6773 -0.645861,2.31998 -2.288963,2.64201 -0.763379,0.14961 -0.873771,0.10669 -0.79375,-0.30865 z m -21.602885,-4.27927 c -1.09601,-0.10145 -7.84858,-1.31928 -8.66511,-1.56276 -0.52633,-0.15695 -0.6367,-0.89941 -0.13229,-0.88997 0.1819,0.003 1.81901,0.31345 3.63802,0.68899 2.36532,0.48832 4.43766,0.71758 7.27605,0.80494 l 3.96875,0.12214 6.467717,-1.60488 c 3.557243,-0.88268 6.623103,-1.60488 6.813021,-1.60488 0.582607,0 0.382508,0.72145 -0.250013,0.90141 -2.447898,0.69644 -11.740925,2.86683 -13.144695,3.06995 -1.69667,0.2455 -3.83916,0.27243 -5.97145,0.0751 z m 9.12812,-9.03035 c -0.80397,-0.11847 -1.19062,-0.30433 -1.19062,-0.57232 0,-0.25819 0.23114,-0.38214 0.66146,-0.3547 0.3638,0.0232 1.91161,0.12356 3.439581,0.22305 2.102686,0.1369 3.453564,0.0685 5.55625,-0.28118 1.527969,-0.25413 3.194844,-0.47356 3.704167,-0.48763 1.721961,-0.0476 1.204163,0.49876 -0.929947,0.98118 -2.253547,0.50942 -9.090737,0.80843 -11.240891,0.4916 z m 94.0471808,53.60112 c 0.099994,-0.32742 0.2490179,-2.05383 0.3311631,-3.83646 0.1093999,-2.37413 0.239686,-3.24114 0.4870423,-3.24114 0.185727,0 0.9285129,0.98226 1.6506323,2.18281 3.4726643,5.7734 5.96599709,2.82857 3.5268245,-4.16547 -0.4532472,-1.29964 -0.8240872,-2.45677 -0.8240872,-2.57141 0,-0.59172 0.8585412,0.0171 3.0376046,2.15402 2.5140656,2.46546 3.4140326,2.94436 4.555625,2.42422 0.5837582,-0.26598 0.6552221,-0.42969 0.5284841,-1.21069 -0.2738888,-1.68777 -1.0682473,-2.91053 -3.4063597,-5.24342 -3.25537518,-3.2481 -3.20177853,-3.33994 1.0815849,-1.85333 1.5990571,0.55497 3.0126121,0.9015 3.2717662,0.80205 1.316011,-0.505 -0.3148145,-2.53361 -3.9754758,-4.94515 -1.2005469,-0.79089 -2.18281256,-1.52616 -2.18281256,-1.63394 0,-0.55108 0.74056616,-0.39138 3.34640776,0.72165 3.0411288,1.29894 4.1807845,1.59275 5.1928263,1.33875 0.7618836,-0.19122 1.2543134,-1.15717 0.9749184,-1.91239 -0.3189898,-0.86227 -2.393982,-2.54485 -4.7240563,-3.83068 -1.3871073,-0.76546 -2.1314543,-1.33605 -2.1365078,-1.63775 -0.00945,-0.56313 -0.1187689,-0.56587 2.6380784,0.0661 4.8754587,1.11772 5.3719127,0.54967 2.2489584,-2.57328 -1.0914063,-1.09141 -1.9843751,-2.15847 -1.9843751,-2.37125 0,-0.32437 0.3819816,-0.35698 2.3647136,-0.20187 3.5421098,0.27709 4.4889208,-0.14433 3.1253908,-1.39111 -0.871546,-0.79692 -2.0392047,-1.33257 -5.0512188,-2.31718 -1.7724914,-0.57942 -2.7169772,-1.02338 -2.773389,-1.30365 -0.074994,-0.37256 0.3330204,-0.42517 3.3072917,-0.42647 3.3944721,-0.002 5.3772121,-0.30783 5.3772121,-0.83084 0,-0.49517 -1.553681,-1.74769 -3.7125119,-2.9929 -2.8009295,-1.61558 -2.8160954,-2.08998 -0.057801,-1.80821 3.6308929,0.37091 11.3587899,0.21798 13.5350099,-0.26786 4.642104,-1.03633 7.444883,-3.29732 8.05602,-6.49874 0.156792,-0.82134 0.123735,-0.88027 -0.424826,-0.75723 -7.753617,1.73909 -10.89619,2.15114 -14.485475,1.89934 -4.159022,-0.29176 -9.2604165,-1.44471 -9.2604165,-2.09291 0,-0.50145 0.9889755,-1.16668 3.9098988,-2.62999 1.9988687,-1.00138 2.5358357,-1.3999 2.8916897,-2.14613 0.24035,-0.50402 0.363823,-0.98958 0.274383,-1.07902 -0.08944,-0.0894 -2.581325,0.0432 -5.5375225,0.29466 -7.3615975,0.6263 -11.6841484,0.4107 -14.6047807,-0.72845 l -0.7632091,-0.29768 0.161491,-2.09417 0.1614911,-2.09416 -1.6598583,1.5457 c -0.9129209,0.85013 -3.1424615,2.55421 -4.9545315,3.78684 -3.628427,2.46817 -5.387587,3.96566 -5.960825,5.07418 -1.144601,2.21342 0.712671,4.72065 3.499885,4.72469 1.286843,0.002 2.858307,0.43175 3.234274,0.88477 0.158856,0.19141 0.528797,2.21693 0.822087,4.50116 0.501772,3.90792 1.027602,5.99009 1.512546,5.98936 0.116568,-1.8e-4 1.1049083,-0.73284 2.1963146,-1.62814 2.9297313,-2.40329 4.6907504,-3.474 5.4148594,-3.29226 1.7972062,0.45107 1.4987376,8.51254 -0.5040471,13.61405 -0.9543177,2.43084 -1.8499985,3.84477 -3.4475659,5.44234 -2.6206609,2.62066 -6.049293,3.69594 -9.883939,3.09978 -2.236258,-0.34766 -3.453098,-1.03187 -4.543891,-2.55495 -1.2421,-1.73434 -2.650643,-1.57592 -6.094545,0.68546 -1.923595,1.2631 -2.381022,1.68206 -2.228807,2.04135 0.692771,1.6352 0.247321,7.84813 -0.816007,11.3813 -0.20143,0.6693 -0.330883,1.25226 -0.287674,1.29547 0.04321,0.0432 0.532442,-0.58045 1.087186,-1.38592 0.554742,-0.80546 1.140101,-1.42106 1.300798,-1.36799 0.160695,0.0531 0.394764,0.77008 0.520152,1.59337 0.198483,1.30324 0.343062,1.56802 1.117526,2.04667 0.552852,0.34168 1.217655,0.51819 1.756397,0.46634 0.852787,-0.0821 0.871649,-0.11269 1.162653,-1.88736 0.401352,-2.44758 0.735055,-2.7137 1.414693,-1.12817 0.296153,0.6909 0.538461,1.35624 0.538461,1.47853 0,0.4849 1.355673,1.79502 1.981163,1.91459 1.243955,0.2378 1.545778,-0.29514 1.672895,-2.95388 0.09535,-1.99429 0.188108,-2.41388 0.519276,-2.34883 0.252045,0.0495 0.591979,0.77349 0.906799,1.93128 0.630449,2.31856 1.156642,2.90789 2.389812,2.67655 1.527334,-0.28653 1.804847,-0.65767 2.005179,-2.68168 0.137414,-1.38833 0.287107,-1.86062 0.609306,-1.92237 0.341752,-0.0655 0.595273,0.58953 1.268225,3.27672 0.4626,1.84722 0.9702958,3.60901 1.1282177,3.9151 0.7829656,1.51755 1.8650056,1.95566 2.191303,0.88724 z m 0.049916,-40.15798 c -1.3488644,-0.40422 -1.7575081,-0.99156 -1.7575081,-2.52607 0,-1.32554 -0.037645,-1.40144 -0.7754667,-1.5635 -1.046327,-0.22981 -1.331828,-0.64042 -1.513838,-2.1772 -0.139398,-1.177 -0.262294,-1.37147 -1.269272,-2.00854 -1.63395,-1.03371 -2.092079,-1.62382 -1.888953,-2.43314 0.166857,-0.66481 2.249503,-2.38097 2.889427,-2.38097 0.642832,0 0.268171,0.65283 -0.83208,1.44984 -1.412724,1.02338 -1.362009,1.46471 0.292735,2.54747 1.675342,1.09623 1.611104,1.0038 1.768716,2.54489 0.127733,1.2489 0.204496,1.37261 1.0218548,1.64677 1.0770182,0.36126 1.4574282,0.97531 1.2341066,1.99208 -0.2287085,1.04131 0.2347198,1.80066 1.2612846,2.06667 0.4694635,0.12165 0.8920534,0.42191 0.9393344,0.66744 0.09343,0.48513 -0.2059437,0.5232 -1.3703406,0.17426 z M 9.130841,444.6697 c -0.7276042,-0.11286 -3.763698,-0.81165 -6.7468751,-1.55286 -2.98317713,-0.74122 -5.6918491,-1.4102 -6.0192709,-1.48662 -0.6654536,-0.15533 -0.823132,-0.92263 -0.1895978,-0.92263 0.2231443,0 3.05087871,0.68133 6.2838543,1.51407 l 5.8781395,1.51406 4.365625,0.003 c 3.708702,0.002 4.906918,-0.10614 7.962808,-0.72032 4.21522,-0.84717 3.943442,-0.82347 3.943442,-0.34391 0,0.46254 -0.210529,0.53027 -3.704166,1.19173 -5.486231,1.03872 -8.800799,1.26502 -11.773959,0.80383 z m -10.8479168,-8.87567 c -0.2910417,-0.0691 -1.5709636,-0.31632 -2.8442709,-0.54931 -1.5834651,-0.28973 -2.3151042,-0.53866 -2.3151042,-0.78766 0,-0.46363 0.5243036,-0.45775 3.0855788,0.0346 3.16695673,0.60875 6.063668,0.75195 8.6779313,0.42898 2.4036973,-0.29695 3.2495464,-0.12442 2.595679,0.52945 -0.302895,0.3029 -8.13925553,0.59588 -9.199814,0.34396 z M -109.71313,469.21499 c 1.58431,-0.73516 5.20543,-3.9393 5.20543,-4.60601 0,-0.19441 -0.22962,-0.35347 -0.51027,-0.35347 -0.28065,0 -0.70495,-0.19468 -0.9429,-0.43263 -0.40045,-0.40045 -0.51323,-0.34876 -1.51622,0.69507 -3.02438,3.14747 -8.81018,3.82502 -12.04572,1.41063 -0.95294,-0.7111 -1.07607,-0.4862 -0.43111,0.78746 0.61153,1.20766 1.14384,1.75038 2.34934,2.3953 1.51484,0.8104 2.13488,0.93444 4.36563,0.87331 1.52007,-0.0417 2.34504,-0.22174 3.52582,-0.76966 z m 131.846961,0.0358 c 1.357726,-0.69871 3.004302,-2.57859 3.004302,-3.42998 0,-0.46016 -0.105225,-0.43403 -1.071732,0.2661 -3.219453,2.33216 -8.888804,1.49809 -12.019672,-1.76833 -0.850767,-0.8876 -0.975685,-0.94158 -1.217506,-0.52606 -0.148207,0.25466 -0.561208,0.46302 -0.9177791,0.46302 -0.950386,0 -0.8078867,0.39149 0.7407511,2.03504 1.522304,1.6156 2.870515,2.56531 4.696354,3.30822 1.748148,0.71129 5.056585,0.54161 6.785282,-0.34801 z m -134.031481,-3.17623 c 1.42156,-0.30734 3.01864,-1.3176 4.13044,-2.61277 1.09274,-1.27298 3.25951,-4.29377 3.25951,-4.54424 0,-0.11277 -0.34653,-0.13573 -0.77007,-0.051 -1.20089,0.24018 -2.63819,-0.34718 -2.84261,-1.16165 -0.28116,-1.12023 0.4044,-1.96415 2.43318,-2.99524 1.02477,-0.52082 2.15587,-1.0451 2.51355,-1.16508 0.48751,-0.16352 0.0542,-0.26817 -1.73093,-0.41798 -1.30969,-0.10992 -2.60499,-0.24048 -2.87846,-0.29013 -0.40193,-0.073 -0.92048,0.71736 -2.7059,4.12417 -1.21477,2.31796 -2.59837,4.62445 -3.07466,5.12554 -1.24002,1.3046 -2.67435,1.89209 -4.63629,1.89899 -0.90951,0.003 -1.65365,0.10411 -1.65365,0.22427 0,0.36847 1.14627,1.3166 1.98438,1.64136 1.86648,0.72324 3.39617,0.78057 5.97151,0.22378 z m 134.150713,-0.10817 c 1.119915,-0.39513 2.355903,-1.3169 2.355903,-1.75697 0,-0.12016 -0.736314,-0.21846 -1.636257,-0.21846 -3.375012,0 -4.747247,-1.25413 -7.727053,-7.06197 -1.797143,-3.50275 -2.232099,-4.16815 -2.675232,-4.09254 -0.291041,0.0497 -1.600729,0.17431 -2.9104163,0.27702 -1.5670795,0.1229 -2.2003227,0.25671 -1.8520834,0.39136 3.4968627,1.35208 5.1593747,2.55219 5.1593747,3.72436 0,1.13457 -0.612036,1.57214 -2.216912,1.58494 -0.8179881,0.007 -1.4872543,0.0467 -1.4872543,0.0893 0,0.24251 3.0072223,4.30169 3.7357793,5.04261 0.860771,0.87536 2.406039,1.79209 3.672554,2.17875 1.166302,0.35606 4.382133,0.26479 5.581597,-0.1584 z M -102.49933,464.3236 c -0.18349,-0.18348 -0.68546,0.18932 -0.68546,0.50909 0,0.17544 0.15182,0.15537 0.40327,-0.0533 0.2218,-0.18408 0.34879,-0.38917 0.28219,-0.45577 z m 110.5727161,0.4625 c -0.089453,-0.14474 -0.4238996,-0.38959 -0.7432173,-0.54411 -0.5500423,-0.26617 -0.5477272,-0.25233 0.044045,0.26316 0.6741055,0.58721 0.9592734,0.7018 0.6991723,0.28095 z M -59.37763,447.84427 c 0.701207,-0.2666 2.194245,-1.7228 2.219592,-2.16482 0.0059,-0.10314 -0.614325,0.1291 -1.37831,0.51609 -1.800259,0.91189 -4.238678,1.10873 -5.895673,0.47592 -1.509996,-0.57667 -2.900431,-2.19387 -3.331139,-3.8744 -0.182644,-0.71265 -0.415708,-1.29572 -0.517916,-1.29572 -0.275553,0 -1.037043,2.02898 -1.037043,2.76318 0,1.39602 2.903644,3.77738 4.977861,4.08249 1.354047,0.19918 3.756617,-0.0442 4.962628,-0.50274 z m 7.522012,-1.43682 c 1.673489,2.2e-4 4.537368,0.10396 6.364179,0.23053 l 3.321468,0.23012 0.961856,-0.84452 c 1.656043,-1.45403 1.919247,-3.73227 0.596124,-5.15995 -0.576474,-0.62202 -2.293651,-1.24508 -4.39642,-1.59518 -0.908253,-0.15123 -0.966618,-0.11641 -1.123992,0.67046 -0.09129,0.45648 -0.612696,1.2758 -1.158666,1.8207 -1.02948,1.02748 -2.201968,1.48222 -5.726631,2.22105 -1.502243,0.3149 -1.911117,0.52784 -2.675795,1.39358 -1.137626,1.28799 -1.15081,1.54438 -0.06473,1.25886 0.472943,-0.12434 2.229115,-0.22588 3.902605,-0.22565 z m 0.568116,-3.76296 c 0.678569,-0.13571 1.97925,-1.32981 1.725218,-1.58384 -0.146846,-0.14685 -2.887967,1.13249 -3.483959,1.62604 -0.514215,0.42582 -0.507736,0.4336 0.229303,0.2751 0.417161,-0.0897 1.105408,-0.23249 1.529438,-0.3173 z m -9.096103,-2.16447 c 0.894691,-0.45125 4.971645,-1.51117 7.994346,-2.07836 l 1.186148,-0.22258 -2.10616,-1.00021 c -1.158388,-0.55011 -2.196349,-1.14206 -2.306577,-1.31543 -0.11023,-0.17337 -0.202242,-0.70218 -0.20447,-1.17512 -0.0022,-0.47294 -0.08786,-0.85989 -0.190285,-0.85989 -0.712211,0 -5.162445,2.50861 -5.860378,3.30352 -0.772893,0.88027 -0.832554,1.08822 -0.832554,2.90175 0,2.67277 0.206248,3.13973 0.840615,1.90322 0.292889,-0.5709 0.89148,-1.16042 1.479315,-1.4569 z"
         id="path889" />
    </g>
  </g>
</svg>
