<?xml version="1.0" encoding="UTF-8" standalone="no"?>
<!-- Created with Inkscape (http://www.inkscape.org/) -->
<svg xmlns:dc="http://purl.org/dc/elements/1.1/" xmlns:cc="http://web.resource.org/cc/" xmlns:rdf="http://www.w3.org/1999/02/22-rdf-syntax-ns#" xmlns:svg="http://www.w3.org/2000/svg" xmlns="http://www.w3.org/2000/svg" xmlns:sodipodi="http://sodipodi.sourceforge.net/DTD/sodipodi-0.dtd" xmlns:inkscape="http://www.inkscape.org/namespaces/inkscape" height="912.34869" width="745.29761" id="svg2826" sodipodi:version="0.32" inkscape:version="0.44" version="1.0" sodipodi:docbase="E:\Inkscape - rysunki\Poczekalnia" sodipodi:docname="POL_powiat_mikołowski_COA.svg">
  <defs id="defs2828"/>
  <sodipodi:namedview id="base" pagecolor="#ffffff" bordercolor="#666666" borderopacity="1.0" inkscape:pageopacity="0.0" inkscape:pageshadow="2" inkscape:cx="374.28571" inkscape:cy="460" inkscape:zoom="0.53887195" inkscape:document-units="px" inkscape:current-layer="layer1" inkscape:window-width="888" inkscape:window-height="701" inkscape:window-x="-8" inkscape:window-y="-5"/>
  <metadata id="metadata2831">
    <rdf:RDF>
      <cc:Work rdf:about="">
        <dc:format>image/svg+xml</dc:format>
        <dc:type rdf:resource="http://purl.org/dc/dcmitype/StillImage"/>
      </cc:Work>
    </rdf:RDF>
  </metadata>
  <g inkscape:groupmode="layer" inkscape:label="Warstwa 1" id="layer1" transform="translate(1.220233,-99.04494)">
    <g transform="translate(-40,-105.7143)" id="g7561">
      <g transform="translate(34.4603,199.959)" inkscape:label="Warstwa 1" id="g4479">
        <path sodipodi:nodetypes="cccccc" id="path4304" d="M 10.204572,10.685345 L 743.73197,10.685345 L 743.73197,599.09766 C 736.44318,798.54823 546.26939,914.50786 375.97443,911.19472 C 222.24505,908.54422 16.830772,776.68156 10.204572,599.09766 L 10.204572,10.685345 z " style="fill:#dc3635;fill-opacity:1;fill-rule:evenodd;stroke:black;stroke-width:11.77021027;stroke-linecap:round;stroke-linejoin:miter;stroke-miterlimit:4;stroke-dasharray:none;stroke-dashoffset:0;stroke-opacity:1"/>
      </g>
      <g transform="translate(38.77977,204.7593)" id="g4805">
        <path style="fill:white;fill-opacity:1;fill-rule:evenodd;stroke:black;stroke-width:5.95984268;stroke-linecap:butt;stroke-linejoin:miter;stroke-miterlimit:4;stroke-dasharray:none;stroke-opacity:1" d="M 311.02663,274.07381 C 298.25871,275.67965 290.34062,280.92287 283.94966,287.31144 C 302.55013,299.29953 318.29581,316.04559 332.08649,336.04999 C 368.65371,307.47493 405.26537,279.25534 443.40293,263.24302 C 440.69162,253.89415 429.87762,247.48937 420.8222,242.89858 C 391.33839,252.37914 363.37544,291.65296 333.28992,301.75249 C 321.80872,293.87963 312.92794,285.13996 311.02663,274.07381 z " id="path2532" sodipodi:nodetypes="ccccccc"/>
        <path id="path2057" style="fill:white;fill-opacity:1;fill-rule:evenodd;stroke:black;stroke-width:5.95984268;stroke-linecap:butt;stroke-linejoin:miter;stroke-miterlimit:4;stroke-dasharray:none;stroke-opacity:1" d="M 245.92819,320.65188 L 224.13396,613.23951 L 488.38908,614.32923 L 480.21624,370.23377 L 448.6146,317.92761 L 245.92819,320.65188 z " sodipodi:nodetypes="cccccc"/>
        <path style="fill:white;fill-opacity:1;fill-rule:evenodd;stroke:black;stroke-width:5.95984268;stroke-linecap:butt;stroke-linejoin:miter;stroke-miterlimit:4;stroke-dasharray:none;stroke-opacity:1" d="M 285.75479,284.9046 C 271.76994,290.59372 260.83802,298.11459 239.42308,299.34565 C 258.16522,352.36625 305.37037,350.33652 323.66255,392.61077 C 364.68854,347.52969 401.30725,338.62683 444.00464,331.2363 L 472.77303,264.78757 C 461.63264,264.95112 450.15212,267.25943 442.19951,262.64131 C 401.10829,283.77057 366.31512,309.62336 331.48478,335.44828 C 320.88222,316.74408 304.3345,300.41794 285.75479,284.9046 z " id="path2534" sodipodi:nodetypes="cccccccc"/>
        <path style="fill:white;fill-opacity:1;fill-rule:evenodd;stroke:black;stroke-width:5.95984268;stroke-linecap:butt;stroke-linejoin:miter;stroke-miterlimit:4;stroke-dasharray:none;stroke-opacity:1" d="M 420.53793,241.58145 C 391.66134,262.36492 369.63831,290.04787 332.68821,302.95591 C 322.06001,295.43352 313.44876,286.90265 308.61979,276.48065 C 317.29321,268.72271 314.14253,260.21829 313.32985,251.10519 C 324.89384,254.5182 332.43531,241.24118 344.72241,239.1746 C 334.43476,240.69981 326.70724,252.3497 314.63689,251.20881 C 299.23002,250.28187 290.41097,241.44954 282.14453,231.95408 C 332.61769,216.41509 377.49049,192.52526 407.3003,156.13856 C 362.02056,166.83169 292.22049,173.2241 253.26242,142.90093 C 284.27289,93.122384 319.17546,48.309619 391.65583,51.44094 C 486.61458,121.53613 396.22719,218.65409 420.53793,241.58145 z " id="path2536" sodipodi:nodetypes="ccccccccccc"/>
        <path style="fill:white;fill-opacity:1;fill-rule:evenodd;stroke:black;stroke-width:5.95984268;stroke-linecap:butt;stroke-linejoin:miter;stroke-miterlimit:4;stroke-dasharray:none;stroke-opacity:1" d="M 470.4799,264.70703 C 456.15895,316.92508 428.48831,346.63259 401.51062,378.28343 C 432.72853,395.85143 484.12617,379.78654 544.116,349.40133 C 536.51546,307.09459 509.57976,274.23982 470.4799,264.70703 z " id="path2530" sodipodi:nodetypes="cccc"/>
        <path style="fill:white;fill-opacity:1;fill-rule:evenodd;stroke:black;stroke-width:5.95984268;stroke-linecap:butt;stroke-linejoin:miter;stroke-miterlimit:4;stroke-dasharray:none;stroke-opacity:1" d="M 297.789,379.85451 C 260.71926,415.68605 228.48683,411.20666 196.09993,408.01456 C 170.4875,358.84704 192.33643,310.97801 239.90445,298.50325 C 249.78598,327.503 271.9749,354.04127 297.789,379.85451 z " id="path2528" sodipodi:nodetypes="cccc"/>
        <path style="fill:none;fill-opacity:0.75;fill-rule:evenodd;stroke:black;stroke-width:5.95984268;stroke-linecap:butt;stroke-linejoin:miter;stroke-miterlimit:4;stroke-dasharray:none;stroke-opacity:1" d="M 322.20802,390.9383 L 321.11831,563.11277" id="path2064"/>
        <path style="fill:white;fill-opacity:1;fill-rule:evenodd;stroke:black;stroke-width:5.95984268;stroke-linecap:butt;stroke-linejoin:miter;stroke-miterlimit:4;stroke-dasharray:none;stroke-opacity:1" d="M 197.98087,408.37369 C 195.81121,409.25266 196.42524,439.44052 198.52494,446.22036 C 194.13679,447.85184 188.83175,491.75388 194.01379,491.56996 C 187.80444,500.19308 182.86968,546.47532 190.60601,544.40319 L 241.95976,544.67776 C 244.92605,521.65614 246.49168,494.11978 244.44649,493.64988 C 247.01595,491.70767 252.55207,450.98266 249.19574,449.3235 C 252.19734,446.97822 256.80966,409.33332 253.65914,408.33937 C 235.09972,412.05838 216.54029,413.07253 197.98087,408.37369 z " id="path2066" sodipodi:nodetypes="ccccccccc"/>
        <path style="fill:white;fill-opacity:1;fill-rule:evenodd;stroke:black;stroke-width:5.95984268;stroke-linecap:butt;stroke-linejoin:miter;stroke-miterlimit:4;stroke-dasharray:none;stroke-opacity:1" d="M 460.60143,381.13089 L 535.79154,475.93582 L 503.10019,473.7564 L 504.75191,560.57726 L 594.63598,562.02306 L 594.63598,543.49796 L 637.13475,538.0494 L 629.50676,474.84611 L 620.78907,472.66669 C 626.85376,466.11319 604.68277,422.94486 594.63598,427.9885 C 597.16434,424.37398 576.47412,383.65379 567.39319,385.48974 C 573.56845,380.58615 546.79181,346.71182 541.2401,349.13712 C 522.80123,358.26117 509.88392,370.14599 481.30595,374.20049 C 479.30004,378.93406 501.24408,412.11919 513.99731,409.4634 C 506.09898,412.26435 537.35943,448.26637 542.32981,441.06504 C 540.84606,449.3996 545.80034,473.35362 555.40636,473.7564 L 555.77531,474.84611 C 551.20352,472.58336 542.3142,469.09601 541.49752,441.20917 C 532.12594,443.63592 507.4969,413.8897 513.38277,408.99471 C 501.2692,412.35893 481.83654,380.55444 483.00532,376.17162 L 460.60143,381.13089 z " id="path2068" sodipodi:nodetypes="ccccccccccccccccccccc"/>
        <path style="fill:none;fill-opacity:0.75;fill-rule:evenodd;stroke:black;stroke-width:5.95984268;stroke-linecap:butt;stroke-linejoin:miter;stroke-miterlimit:4;stroke-dasharray:none;stroke-opacity:1" d="M 266.49543,464.67833 L 280.7432,517.97553" id="path2070" sodipodi:nodetypes="cc"/>
        <path sodipodi:nodetypes="ccc" style="fill:none;fill-opacity:0.75;fill-rule:evenodd;stroke:black;stroke-width:5.95984268;stroke-linecap:butt;stroke-linejoin:miter;stroke-miterlimit:4;stroke-dasharray:none;stroke-opacity:1" d="M 513.30716,408.75096 C 535.44844,405.16399 552.117,396.10429 566.85782,385.11686 L 567.15699,384.51853" id="path2072"/>
        <path sodipodi:nodetypes="cc" style="fill:none;fill-opacity:0.75;fill-rule:evenodd;stroke:black;stroke-width:5.95984268;stroke-linecap:butt;stroke-linejoin:miter;stroke-miterlimit:4;stroke-dasharray:none;stroke-opacity:1" d="M 542.02707,441.06086 C 560.49531,440.22242 577.12797,433.87724 593.78274,427.5984" id="path2074"/>
        <path sodipodi:nodetypes="cc" style="fill:none;fill-opacity:0.75;fill-rule:evenodd;stroke:black;stroke-width:5.95984268;stroke-linecap:butt;stroke-linejoin:miter;stroke-miterlimit:4;stroke-dasharray:none;stroke-opacity:1" d="M 198.28564,445.24918 C 214.47718,452.47216 231.39332,454.623 249.44298,448.83917" id="path2076"/>
        <path sodipodi:nodetypes="cc" style="fill:none;fill-opacity:0.75;fill-rule:evenodd;stroke:black;stroke-width:5.95984268;stroke-linecap:butt;stroke-linejoin:miter;stroke-miterlimit:4;stroke-dasharray:none;stroke-opacity:1" d="M 194.09732,491.02153 C 209.89261,496.11068 226.40476,497.61548 244.058,493.41486" id="path2078"/>
        <path style="fill:white;fill-opacity:1;fill-rule:evenodd;stroke:black;stroke-width:7.00511789;stroke-linecap:butt;stroke-linejoin:miter;stroke-miterlimit:4;stroke-dasharray:none;stroke-opacity:1" d="M 406.15106,156.89216 C 371.16986,194.17604 326.54284,219.00748 275.64178,233.87797 C 251.82654,212.99439 234.48028,178.61918 231.28329,146.62739 C 277.22847,159.82055 329.1908,180.54149 406.15106,156.89216 z " id="path2995" sodipodi:nodetypes="cccc"/>
        <path style="fill:none;fill-opacity:0.75;fill-rule:evenodd;stroke:black;stroke-width:5.25118113;stroke-linecap:butt;stroke-linejoin:miter;stroke-miterlimit:4;stroke-dasharray:none;stroke-opacity:1" d="M 528.48784,481.60052 C 548.7851,503.62054 567.91956,527.19096 593.5271,542.13061 L 593.85767,561.21574 L 580.75374,562.02667 C 556.52765,532.4963 544.02104,507.65373 528.48784,481.60052 z " id="path3899" sodipodi:nodetypes="ccccc"/>
        <path style="fill:none;fill-opacity:0.75;fill-rule:evenodd;stroke:black;stroke-width:5.25118113;stroke-linecap:butt;stroke-linejoin:miter;stroke-miterlimit:4;stroke-dasharray:none;stroke-opacity:1" d="M 636.98646,537.89262 C 597.55702,521.9924 559.89967,501.66198 524.19045,476.46121" id="path3901" sodipodi:nodetypes="cc"/>
        <path style="fill:none;fill-opacity:0.75;fill-rule:evenodd;stroke:black;stroke-width:5.25118113;stroke-linecap:butt;stroke-linejoin:miter;stroke-miterlimit:4;stroke-dasharray:none;stroke-opacity:1" d="M 629.89216,473.69528 C 599.83586,480.45854 568.09738,478.81093 536.21229,476.43022 C 569.29562,485.84269 602.33231,495.48839 637.22663,495.84593 L 629.89216,473.69528 z " id="path3903" sodipodi:nodetypes="cccc"/>
      </g>
      <path sodipodi:nodetypes="cccc" id="path2526" d="M 519.17425,593.49114 L 173.43142,776.53146 C 237.23328,892.75452 344.80351,1061.6955 544.2054,1051.8742 C 675.46316,905.33762 574.40155,691.52983 519.17425,593.49114 z " style="fill:#0093dd;fill-opacity:1;fill-rule:evenodd;stroke:black;stroke-width:1px;stroke-linecap:butt;stroke-linejoin:miter;stroke-opacity:1"/>
      <g transform="matrix(0.484034,-0.284507,0.307308,0.522826,156.0539,780.5597)" id="g7484">
        <g id="g3161" transform="matrix(1.008819,0,0,1.008819,-2.055949,-2.047246)">
          <g style="fill:#0094d6;fill-opacity:1;stroke:black;stroke-width:4.25196838;stroke-miterlimit:4;stroke-dasharray:none;stroke-opacity:1" transform="translate(-1.729181,-3.20186)" inkscape:label="Warstwa 1" id="g7487"/>
          <g id="g3141" inkscape:label="Warstwa 1" transform="translate(-1.729181,-3.20186)" style="stroke:black;stroke-width:4.25196838;stroke-miterlimit:4;stroke-dasharray:none;stroke-opacity:1"/>
        </g>
        <g id="g3431" transform="matrix(0.834747,0,0,0.811097,1492.35,27.30668)">
          <path id="path2826" d="M -1442.125,27.906253 C -1472.8641,27.913392 -1489.2629,48.549585 -1470.1875,74.39164 C -1460.8014,58.834654 -1430.607,98.778303 -1411.875,111.18135 C -1408.3086,134.08659 -1388.9555,138.85157 -1392.1563,162.00286 C -1396.2552,191.65034 -1414.8493,199.86477 -1421.8438,231.32695 C -1451.2759,217.25822 -1515.6092,236.97104 -1522.8125,195.77614 C -1491.451,187.92531 -1468.3422,172.57196 -1470.9063,133.85846 C -1487.0757,41.153312 -1620.3816,61.492833 -1652.2813,135.68987 C -1661.764,159.18719 -1660.0024,191.63849 -1670.0625,209.8618 L -1659.375,209.8618 C -1665.1666,266.23566 -1672.9136,322.89099 -1689.9688,380.88278 C -1609.0145,365.15923 -1616.3398,265.89578 -1603.9063,249.69488 C -1612.7032,327.54212 -1629.3855,405.40565 -1666.5,483.25297 C -1542.8129,462.5923 -1559.0793,314.04387 -1543.4688,290.76684 C -1540.0704,361.71671 -1556.2714,429.59163 -1573.3125,497.33864 C -1458.7558,442.94778 -1497.9087,355.4576 -1470.9063,282.20233 C -1464.0896,336.86354 -1480.4698,389.70641 -1493.6563,442.80045 C -1481.2142,440.90053 -1471.7732,432.58072 -1463.0938,422.57419 C -1458.4615,425.42946 -1457.7761,430.54761 -1458.8125,436.65986 C -1461.3941,453.63005 -1471.1828,467.48856 -1485.125,479.56323 C -1477.7286,481.91407 -1469.9454,483.43158 -1458.8125,477.73182 C -1463.6939,492.76142 -1468.3821,511.48163 -1480.4375,521.87409 C -1497.1921,543.4371 -1514.4281,509.26168 -1544.875,508.38094 C -1587.0311,513.59583 -1572.0766,541.90349 -1561.9375,542.10035 C -1563.5991,537.56372 -1560.0837,534.7992 -1554.125,532.88946 L -1516.4375,544.5512 L -1549.8438,552.5232 C -1574.1388,555.26988 -1565.7536,588.08792 -1543.4688,585.62317 L -1544.1563,577.03172 C -1537.3367,580.33687 -1529.1189,578.75077 -1515.7188,571.51057 L -1523.5313,578.86313 C -1530.7112,592.00547 -1532.2719,611.43642 -1501.5,608.89279 L -1500.7813,599.70883 C -1487.817,598.74082 -1483.6439,592.0837 -1485.8438,581.31398 C -1474.5262,581.3781 -1478.2256,563.43292 -1464.5,558.63687 C -1448.6158,556.60715 -1460.4694,573.69639 -1446.7188,574.58087 C -1443.2991,579.6889 -1439.5147,584.79729 -1445.3125,589.90543 C -1407.04,593.50076 -1414.3999,535.08066 -1450.2813,541.4809 C -1456.3064,524.65662 -1434.2123,506.57024 -1423.25,494.88779 C -1419.6669,504.32379 -1414.7064,512.17571 -1405.4688,515.11405 C -1403.7995,490.2034 -1393.7419,479.73231 -1386.9688,463.61923 C -1376.6363,476.15725 -1375.3639,501.69663 -1376.3125,530.4386 C -1411.3007,545.16138 -1398.0549,580.99129 -1372.0313,586.21568 C -1378.208,647.1085 -1452.4687,624.18966 -1471.625,595.42658 C -1472.7022,618.57072 -1478.8192,643.87813 -1454.5625,656.10536 L -1499.3438,648.7528 C -1484.0308,694.34981 -1431.1037,728.68056 -1374.1875,699.62818 C -1369.7379,726.46719 -1358.9227,743.23167 -1343.5938,751.123 L -1343.5938,750.20729 C -1328.579,742.19286 -1316.7604,726.08009 -1312.375,699.62818 C -1255.4588,728.68056 -1202.5317,694.34981 -1187.2188,648.7528 L -1232.0313,656.10536 C -1207.7745,643.87813 -1213.8603,618.57072 -1214.9375,595.42658 C -1234.0937,624.18966 -1308.3544,647.1085 -1314.5313,586.21568 C -1288.5077,580.99129 -1275.2618,545.16138 -1310.25,530.4386 C -1311.1986,501.69663 -1309.9262,476.15725 -1299.5938,463.61923 C -1292.8205,479.73231 -1282.763,490.2034 -1281.0938,515.11405 C -1271.8562,512.17571 -1266.8956,504.32379 -1263.3125,494.88779 C -1252.3502,506.57024 -1230.2561,524.65662 -1236.2813,541.4809 C -1272.1627,535.08066 -1279.5225,593.50076 -1241.25,589.90543 C -1247.0478,584.79729 -1243.2633,579.6889 -1239.8438,574.58087 C -1226.0932,573.69639 -1237.9467,556.60715 -1222.0625,558.63687 C -1208.3369,563.43292 -1212.0362,581.3781 -1200.7188,581.31398 C -1202.9185,592.0837 -1198.7455,598.74082 -1185.7813,599.70883 L -1185.0625,608.89279 C -1154.2905,611.43642 -1155.8513,592.00547 -1163.0313,578.86313 L -1170.8438,571.51057 C -1157.4437,578.75077 -1149.2258,580.33687 -1142.4063,577.03172 L -1143.125,585.62317 C -1120.8402,588.08792 -1112.4238,555.26988 -1136.7188,552.5232 L -1170.125,544.5512 L -1132.4375,532.88946 C -1126.4788,534.7992 -1122.9634,537.56372 -1124.625,542.10035 C -1114.4859,541.90349 -1099.5314,513.59583 -1141.6875,508.38094 C -1172.1344,509.26168 -1189.3704,543.4371 -1206.125,521.87409 C -1218.1804,511.48163 -1222.8686,492.76142 -1227.75,477.73182 C -1216.6172,483.43158 -1208.8339,481.91407 -1201.4375,479.56323 C -1215.3796,467.48856 -1225.1684,453.63005 -1227.75,436.65986 C -1228.7865,430.54761 -1228.1011,425.42946 -1223.4688,422.57419 C -1214.7892,432.58072 -1205.3483,440.90053 -1192.9063,442.80045 C -1206.0926,389.70641 -1222.4729,336.86354 -1215.6563,282.20233 C -1188.6537,355.4576 -1227.8067,442.94778 -1113.25,497.33864 C -1130.2912,429.59163 -1146.5233,361.71671 -1143.125,290.76684 C -1127.5145,314.04387 -1143.7496,462.5923 -1020.0625,483.25297 C -1057.177,405.40565 -1073.8593,327.54212 -1082.6563,249.69488 C -1070.2226,265.89578 -1077.548,365.15923 -996.59375,380.88278 C -1013.6489,322.89099 -1021.3959,266.23566 -1027.1875,209.8618 L -1016.5,209.8618 C -1026.5601,191.63849 -1024.7985,159.18719 -1034.2813,135.68987 C -1066.1808,61.492833 -1199.4869,41.153312 -1215.6563,133.85846 C -1218.2202,172.57196 -1195.1115,187.92531 -1163.75,195.77614 C -1170.9534,236.97104 -1235.2865,217.25822 -1264.7188,231.32695 C -1271.7133,199.86477 -1290.3073,191.65034 -1294.4063,162.00286 C -1297.6071,138.85157 -1314.5977,134.08659 -1311.0313,111.18135 C -1292.5644,98.953928 -1323.7806,49.744164 -1345.0313,50.017784 L -1345.0313,49.883122 C -1364.5652,43.997113 -1374.0811,26.580885 -1404.0625,32.700227 C -1417.0773,31.534168 -1417.8612,30.787196 -1427.5938,29.333672 C -1432.7017,28.381755 -1437.5762,27.905196 -1442.125,27.906253 z M -1457.4375,57.15488 C -1453.9202,57.045011 -1449.2363,58.856648 -1445.875,59.524934 C -1443.1261,64.774078 -1453.7974,63.408937 -1462.375,63.080016 C -1462.4553,58.661314 -1460.3519,57.245914 -1457.4375,57.15488 z " style="fill:#181818;fill-opacity:1;fill-rule:evenodd;stroke:none;stroke-width:1px;stroke-linecap:butt;stroke-linejoin:miter;stroke-opacity:1"/>
          <path style="fill:#f7e600;fill-opacity:1;fill-rule:evenodd;stroke:none;stroke-width:1px;stroke-linecap:butt;stroke-linejoin:miter;stroke-opacity:1" d="M -1394.5,36.125 C -1397.7322,36.263157 -1400.8781,37.130389 -1403.9063,38.96875 C -1402.4563,50.764727 -1402.2793,65.343562 -1397.5,71.75 C -1386.9435,91.644171 -1389.3312,105.01897 -1407.125,106.625 C -1401.7436,120.40665 -1395.2452,132.03947 -1386.7813,139.84375 C -1372.8065,189.10831 -1421.5605,202.87387 -1411.9375,248.1875 C -1403.2016,235.03687 -1380.35,233.50085 -1376.9063,209.5 C -1376.7164,218.76446 -1373.3774,237.49985 -1356.875,246.9375 C -1351.8354,244.6351 -1347.911,237.28071 -1345.1875,229.15625 L -1345.125,211.53125 C -1341.4513,239.54219 -1329.7584,246.3226 -1324.7188,248.625 C -1323.7382,233.97122 -1308.6658,231.3445 -1305.625,210.34375 C -1304.0818,235.97464 -1284.4662,233.40683 -1274.1464,250.14355 C -1266.6452,202.22185 -1295.1397,201.69935 -1303.5313,147.40625 C -1309.512,143.19565 -1314.1308,128.23067 -1318.5938,111.59375 C -1295.4069,97.076144 -1326.4765,52.675446 -1346.375,56.75 L -1346.375,56.28125 C -1362.2673,50.791094 -1379.3445,35.477199 -1394.5,36.125 z " id="path2881" sodipodi:nodetypes="cccccccccccccccccc"/>
          <path style="fill:white;fill-opacity:1;fill-rule:evenodd;stroke:black;stroke-width:5.5920434;stroke-linecap:butt;stroke-linejoin:miter;stroke-miterlimit:4;stroke-dasharray:none;stroke-opacity:1" d="M -1392.2279,53.497783 C -1400.7787,76.337452 -1368.8648,82.363388 -1356.039,67.450736" id="path2869" sodipodi:nodetypes="cc"/>
          <path style="fill:none;fill-opacity:0.75;fill-rule:evenodd;stroke:black;stroke-width:5.5920434;stroke-linecap:butt;stroke-linejoin:miter;stroke-miterlimit:4;stroke-dasharray:none;stroke-opacity:1" d="M -1405.8781,52.677021 C -1361.8718,52.622358 -1365.6629,66.950363 -1349.3726,69.639435" id="path2867" sodipodi:nodetypes="cc"/>
          <path sodipodi:type="arc" style="opacity:1;fill:black;fill-opacity:1;fill-rule:evenodd;stroke:black;stroke-width:3.54330707;stroke-linecap:round;stroke-linejoin:miter;stroke-miterlimit:4;stroke-dasharray:none;stroke-dashoffset:0;stroke-opacity:1" id="path2865" sodipodi:cx="-439.18701" sodipodi:cy="69.42234" sodipodi:rx="7.1425424" sodipodi:ry="7.1425424" d="M -432.04447 69.42234 A 7.1425424 7.1425424 0 1 1  -446.32955,69.42234 A 7.1425424 7.1425424 0 1 1  -432.04447 69.42234 z" transform="matrix(1.088889,0,0,0.938446,-897.6535,-4.401273)"/>
          <path style="fill:#f7e600;fill-opacity:1;fill-rule:evenodd;stroke:none;stroke-width:1px;stroke-linecap:butt;stroke-linejoin:miter;stroke-opacity:1" d="M -1639.0254,197.31803 L -1655.2388,208.29716 C -1652.6028,262.19944 -1667.8463,316.10172 -1679.3344,370.00408 C -1621.0805,347.06178 -1619.9551,276.32341 -1610.2973,218.64973 C -1617.3822,224.78472 -1624.9076,229.40116 -1633.2349,231.25333 C -1635.0316,267.53603 -1637.9528,299.45747 -1647.1321,307.1087 C -1638.8929,268.92117 -1640.3329,233.51428 -1639.0254,197.31803 z " id="path2883" sodipodi:nodetypes="ccccccc"/>
          <path style="fill:#f7e600;fill-opacity:1;fill-rule:evenodd;stroke:none;stroke-width:1px;stroke-linecap:butt;stroke-linejoin:miter;stroke-opacity:1" d="M -1655.3922,473.559 C -1559.2715,447.43747 -1565.1108,345.99621 -1551.7632,258.72873 C -1558.7289,264.67291 -1565.968,270.27279 -1574.1694,260.33795 C -1577.8631,317.17815 -1588.129,373.90476 -1612.9136,420.05257 C -1596.1511,369.09898 -1580.6136,296.07889 -1583.5054,236.60207 L -1597.9761,249.47578 C -1604.8668,326.97423 -1617.767,401.81504 -1655.3922,473.559 z " id="path2885" sodipodi:nodetypes="ccccccc"/>
          <path style="fill:#f7e600;fill-opacity:1;fill-rule:evenodd;stroke:none;stroke-width:1px;stroke-linecap:butt;stroke-linejoin:miter;stroke-opacity:1" d="M -1562.9663,483.61657 C -1505.0469,458.74694 -1494.2905,408.98889 -1485.4779,277.63703 C -1494.0545,280.93562 -1504.0563,292.38747 -1507.8842,275.22319 C -1510.4571,336.59933 -1522.4291,421.79477 -1533.5581,434.9378 C -1521.1504,381.2945 -1513.2754,325.73879 -1515.353,265.16563 L -1535.4252,279.24625 C -1534.2052,350.63324 -1547.0563,431.4109 -1562.9663,483.61657 z " id="path2887" sodipodi:nodetypes="ccccccc"/>
          <path style="fill:#f7e600;fill-opacity:1;fill-rule:evenodd;stroke:none;stroke-width:1px;stroke-linecap:butt;stroke-linejoin:miter;stroke-opacity:1" d="M -1441.1322,271.20022 C -1446.5781,274.30835 -1455.7585,284.34971 -1463.0716,288.09698 C -1462.2316,332.75269 -1468.7735,382.63828 -1483.1439,428.50099 C -1447.5507,406.40493 -1395.1325,360.02779 -1414.0579,282.4647 C -1421.5267,288.25125 -1428.9954,290.15832 -1436.4642,282.06239 C -1433.2264,326.86926 -1440.5214,359.76786 -1454.6693,381.02914 C -1441.7967,352.06061 -1437.9568,312.93541 -1441.1322,271.20022 z " id="path2889" sodipodi:nodetypes="ccccccc"/>
          <path style="fill:#f7e600;fill-opacity:1;fill-rule:evenodd;stroke:none;stroke-width:1px;stroke-linecap:butt;stroke-linejoin:miter;stroke-opacity:1" d="M -1662.8609,204.82007 C -1646.4925,202.53896 -1636.9124,188.44817 -1629.7183,174.6473 C -1633.201,190.1721 -1635.0494,205.93176 -1631.1187,222.52145 C -1617.4257,219.00825 -1607.2131,211.89568 -1605.9117,195.56712 C -1604.2806,210.46985 -1610.0283,232.43853 -1598.4429,237.80899 C -1586.4054,232.90806 -1578.4279,225.00785 -1575.103,213.67072 C -1580.5087,232.22859 -1579.7444,248.46002 -1565.3003,259.53334 C -1549.79,252.48023 -1547.8274,241.92427 -1544.2944,231.7744 L -1539.6264,271.20022 C -1518.9345,269.18679 -1517.4689,253.91735 -1514.8862,239.41822 C -1512.4706,252.02372 -1511.4607,264.62922 -1499.4818,277.23472 C -1482.07,275.06082 -1478.6594,261.82557 -1473.3412,250.28039 C -1471.1318,261.10508 -1476.8318,274.65644 -1463.5384,281.66008 C -1453.195,274.75056 -1441.7741,268.76949 -1443.4662,251.48731 C -1441.5671,266.63971 -1436.4922,277.23032 -1427.1282,281.66008 C -1408.5082,275.98316 -1411.6972,230.75235 -1433.1966,234.18824 C -1460.2316,228.46348 -1486.382,232.99545 -1503.1321,227.1384 C -1526.1692,219.0828 -1537.8566,205.19773 -1541.0268,185.91178 C -1502.0526,190.46065 -1478.8879,171.82038 -1481.2767,137.63532 C -1479.0318,98.458802 -1509.7949,79.424668 -1549.4292,78.898998 C -1595.1077,75.198326 -1633.6851,112.9166 -1647.3123,145.32438 C -1654.7424,162.99413 -1650.6042,182.76012 -1662.8609,204.82007 z " id="path2891" sodipodi:nodetypes="ccccccccccccccccscccsc"/>
          <path style="fill:#f7e600;fill-opacity:1;fill-rule:evenodd;stroke:none;stroke-width:1px;stroke-linecap:butt;stroke-linejoin:miter;stroke-opacity:1" d="M -1405.6556,247.06194 L -1410.7903,253.49884 C -1409.902,264.42005 -1412.5942,282.12996 -1406.1224,282.4647 C -1391.0299,271.98018 -1396.8918,254.92871 -1393.9856,240.62513 C -1400.77,241.13431 -1401.7014,251.73198 -1402.388,262.75179 C -1406.7556,261.28916 -1404.6509,252.38896 -1405.6556,247.06194 z " id="path2893" sodipodi:nodetypes="cccccc"/>
          <path style="fill:#f7e600;fill-opacity:1;fill-rule:evenodd;stroke:none;stroke-width:1px;stroke-linecap:butt;stroke-linejoin:miter;stroke-opacity:1" d="M -1387.4505,280.45317 C -1365.7139,287.27056 -1386.1318,319.07558 -1393.052,323.09734 C -1408.541,320.07289 -1411.3058,285.48415 -1395.386,279.64856 L -1393.052,304.99375 C -1386.5169,307.99148 -1393.052,282.71463 -1387.4505,280.45317 z " id="path2897" sodipodi:nodetypes="ccccc"/>
          <path sodipodi:nodetypes="ccccccccccc" id="path2899" d="M -1358.9688,270.80991 C -1379.7217,281.71405 -1368.3577,318.48753 -1354.6094,335.6094 L -1344.25,323.89374 L -1344.1563,315.16763 L -1344.0625,323.92067 L -1332.4376,333.85203 C -1318.6892,316.73015 -1308.1533,281.74098 -1328.9063,270.83684 C -1330.7147,283.60531 -1324.6029,309.31962 -1333.0938,308.64998 C -1330.5035,287.78478 -1333.4394,274.30242 -1344.125,281.42129 C -1354.8311,274.2489 -1357.3744,287.73475 -1354.7813,308.62305 C -1363.2721,309.29269 -1357.1604,283.57838 -1358.9688,270.80991 z " style="fill:#f7e600;fill-opacity:1;fill-rule:evenodd;stroke:none;stroke-width:1px;stroke-linecap:butt;stroke-linejoin:miter;stroke-opacity:1"/>
          <path style="fill:#f7e600;fill-opacity:1;fill-rule:evenodd;stroke:none;stroke-width:1px;stroke-linecap:butt;stroke-linejoin:miter;stroke-opacity:1" d="M -1379.9817,227.75143 L -1389.7845,238.2113 C -1387.9562,254.49245 -1391.6428,276.82267 -1377.1809,279.24625 C -1358.0124,265.64533 -1361.414,249.61479 -1373.9133,233.38363 C -1375.3473,242.76016 -1373.5393,262.08412 -1377.1809,261.94718 C -1380.9594,256.67825 -1379.0481,239.15001 -1379.9817,227.75143 z " id="path2895" sodipodi:nodetypes="cccccc"/>
          <path style="fill:#f7e600;fill-opacity:1;fill-rule:evenodd;stroke:none;stroke-width:1px;stroke-linecap:butt;stroke-linejoin:miter;stroke-opacity:1" d="M -1404.722,324.70657 C -1407.0313,355.73678 -1400.0476,370.45629 -1389.7845,375.39686 C -1389.9469,354.08938 -1385.6502,328.69869 -1404.722,324.70657 z " id="path2901" sodipodi:nodetypes="ccc"/>
          <path style="fill:#f7e600;fill-opacity:1;fill-rule:evenodd;stroke:none;stroke-width:1px;stroke-linecap:butt;stroke-linejoin:miter;stroke-opacity:1" d="M -1365.511,325.91348 C -1355.3532,341.42364 -1357.7316,362.8248 -1371.1126,379.41992 C -1381.9255,380.57625 -1397.0147,320.19631 -1378.1145,320.68359 C -1371.3429,322.53284 -1376.7519,352.50343 -1370.179,346.83331 C -1369.2158,339.04264 -1372.0337,326.03793 -1365.511,325.91348 z " id="path2903" sodipodi:nodetypes="ccccc"/>
          <path style="fill:#f7e600;fill-opacity:1;fill-rule:evenodd;stroke:none;stroke-width:1px;stroke-linecap:butt;stroke-linejoin:miter;stroke-opacity:1" d="M -1410.4213,35.809641 C -1418.4955,35.783389 -1416.3275,35.418142 -1425.1431,34.302122 C -1433.7607,33.507637 -1442.9174,32.811591 -1451.0049,33.739359 C -1478.6287,37.094452 -1472.5253,54.116726 -1471.2719,62.526162 C -1455.6593,37.473738 -1437.9494,68.375336 -1413.8141,69.365846 C -1406.5746,70.56387 -1409.6608,88.385042 -1414.1316,84.686732 C -1427.041,82.771624 -1442.2927,62.851695 -1447.146,69.639437 C -1454.5006,71.562628 -1423.4018,92.408156 -1414.7665,102.19633 C -1399.5746,103.80805 -1395.8023,93.637034 -1399.2116,81.403689 C -1413.5196,62.078428 -1404.8357,42.307882 -1410.4213,35.809641 z " id="path2858" sodipodi:nodetypes="cccccccccc"/>
          <path style="fill:#f7e600;fill-opacity:1;fill-rule:evenodd;stroke:none;stroke-width:1px;stroke-linecap:butt;stroke-linejoin:miter;stroke-opacity:1" d="M -1406.5892,353.27012 C -1401.0882,374.66395 -1424.4462,392.94156 -1422.4603,400.74197 C -1414.3913,397.06399 -1407.1221,377.23732 -1403.3216,376.60378 C -1398.9294,375.8108 -1388.3592,380.02416 -1395.8528,392.29363 C -1406.7867,402.49563 -1431.0609,420.87036 -1445.3333,423.67332 C -1450.0553,410.39567 -1435.007,403.32619 -1427.4157,385.44951 C -1414.8073,355.75833 -1412.6637,352.59797 -1406.5892,353.27012 z " id="path2907" sodipodi:nodetypes="cccccsc"/>
          <path sodipodi:nodetypes="ccccc" id="path2828" d="M -1387.6875,557.42491 C -1389.0467,579.37919 -1367.8037,581.36653 -1344.875,579.99429 C -1320.3878,581.82775 -1297.7132,580.35748 -1300.1875,557.45184 C -1300.7035,540.03349 -1316.5928,535.57152 -1343.5938,537.71036 C -1378.3226,535.27578 -1387.2522,542.73227 -1387.6875,557.42491 z " style="fill:#f7e600;fill-opacity:1;fill-rule:evenodd;stroke:none;stroke-width:1px;stroke-linecap:butt;stroke-linejoin:miter;stroke-opacity:1"/>
          <path style="fill:#f7e600;fill-opacity:1;fill-rule:evenodd;stroke:none;stroke-width:1px;stroke-linecap:butt;stroke-linejoin:miter;stroke-opacity:1" d="M -1342.1243,562.50735 C -1343.472,593.22188 -1346.2476,623.02865 -1364.2217,661.00782 C -1383.6324,730.79782 -1475.6682,700.40373 -1481.5757,659.78185 C -1471.4843,655.32701 -1457.8294,666.30554 -1426.8105,662.23378 C -1468.7858,651.64274 -1470.4262,632.44522 -1464.644,609.61875 C -1428.7621,634.42417 -1372.3589,649.3495 -1360.3896,563.16853 C -1346.8454,612.00569 -1385.6716,652.06582 -1423.2543,649.97431 C -1417.1671,650.81328 -1405.2892,651.65225 -1405.0154,652.49122 C -1371.0078,641.74766 -1359.6157,620.40156 -1342.1243,562.50735 z " id="path2830" sodipodi:nodetypes="ccccccccc"/>
          <path sodipodi:nodetypes="ccc" id="path2832" d="M -1343.3712,618.83352 C -1357.5232,647.03951 -1387.0738,721.59647 -1343.8594,739.70367 C -1298.7233,725.95804 -1330.1468,650.51882 -1343.3712,618.83352 z " style="fill:#f7e600;fill-opacity:1;fill-rule:evenodd;stroke:none;stroke-width:1px;stroke-linecap:butt;stroke-linejoin:miter;stroke-opacity:1"/>
          <path style="fill:#f7e600;fill-opacity:1;fill-rule:evenodd;stroke:none;stroke-width:1px;stroke-linecap:butt;stroke-linejoin:miter;stroke-opacity:1" d="M -1365.4402,531.80865 C -1362.4172,514.84018 -1371.9568,521.50865 -1369.4532,491.78894 C -1351.7628,494.41195 -1358.195,513.36385 -1357.4144,531.31456 L -1365.4402,531.80865 z " id="path2834" sodipodi:nodetypes="cccc"/>
          <path style="fill:#f7e600;fill-opacity:1;fill-rule:evenodd;stroke:none;stroke-width:1px;stroke-linecap:butt;stroke-linejoin:miter;stroke-opacity:1" d="M -1360.854,490.30676 C -1374.7621,485.52347 -1375.9226,467.31249 -1376.3325,448.31077 C -1365.7888,443.94384 -1370.7139,459.71987 -1365.4402,462.63883 L -1361.4273,445.34639 C -1336.6179,457.15064 -1358.4367,474.98276 -1360.854,490.30676 z " id="path2836" sodipodi:nodetypes="ccccc"/>
          <path style="fill:#f7e600;fill-opacity:1;fill-rule:evenodd;stroke:none;stroke-width:1px;stroke-linecap:butt;stroke-linejoin:miter;stroke-opacity:1" d="M -1461.7506,540.70188 C -1465.109,513.3818 -1431.5071,489.13125 -1422.1947,483.88383 C -1423.7565,473.5154 -1433.9632,473.57754 -1442.8326,472.02615 C -1455.4438,495.01268 -1473.0525,529.60366 -1482.3885,532.30269 C -1496.7204,535.14794 -1508.1859,532.56214 -1522.5178,522.91536 C -1528.8238,516.64381 -1534.5565,515.10329 -1539.1427,514.51617 C -1540.0584,519.96809 -1541.5063,525.19067 -1545.4488,529.33827 C -1527.106,537.16919 -1508.8647,545.39317 -1487.548,541.69002 C -1479.3295,545.37478 -1480.1663,550.03509 -1484.1083,555.02991 C -1493.8701,567.13392 -1507.9496,569.26236 -1515.0652,580.22749 C -1507.466,580.30409 -1504.3236,583.12224 -1501.3066,591.09703 C -1496.9115,591.9019 -1489.65,582.83621 -1485.2549,573.3105 C -1488.6116,567.31627 -1468.8415,544.0547 -1452.5782,555.52398 C -1450.7133,560.73155 -1449.1692,567.55956 -1441.686,570.34608 C -1439.5001,562.17719 -1436.4018,561.08303 -1429.6472,559.47655 C -1438.786,541.49637 -1447.5229,551.33179 -1461.7506,540.70188 z " id="path2838" sodipodi:nodetypes="cccccccccccccccc"/>
          <path style="fill:#f7e600;fill-opacity:1;fill-rule:evenodd;stroke:none;stroke-width:1px;stroke-linecap:butt;stroke-linejoin:miter;stroke-opacity:1" d="M -1491.5609,545.64258 C -1494.8722,548.27763 -1510.1171,549.43045 -1517.9316,553.5477 C -1525.3119,546.44799 -1533.8559,551.13217 -1540.8626,554.04177 C -1537.3382,558.57583 -1538.1033,564.97721 -1535.1298,572.32236 C -1528.6683,566.59795 -1521.3305,565.11561 -1513.629,562.59736 C -1505.8935,560.06797 -1497.791,556.51097 -1489.8411,554.53584 C -1484.3351,548.42781 -1481.9078,543.91179 -1491.5609,545.64258 z " id="path2840" sodipodi:nodetypes="ccccscc"/>
          <path style="fill:#f7e600;fill-opacity:1;fill-rule:evenodd;stroke:none;stroke-width:1px;stroke-linecap:butt;stroke-linejoin:miter;stroke-opacity:1" d="M -1426.7809,564.91131 C -1431.6819,565.35676 -1436.3505,566.20296 -1438.2464,571.8283 C -1435.2122,575.94555 -1434.0408,580.0628 -1437.0998,584.18005 C -1430.2042,581.48024 -1421.8936,580.30478 -1426.7809,564.91131 z " id="path2842" sodipodi:nodetypes="cccc"/>
          <path style="fill:#f7e600;fill-opacity:1;fill-rule:evenodd;stroke:none;stroke-width:1px;stroke-linecap:butt;stroke-linejoin:miter;stroke-opacity:1" d="M -1517.3583,584.67411 C -1513.5365,584.96085 -1509.7146,584.81694 -1505.8928,594.06144 L -1507.6126,603.44878 C -1517.8638,601.21398 -1520.8648,594.81351 -1517.3583,584.67411 z " id="path2844" sodipodi:nodetypes="cccc"/>
          <path style="fill:#f7e600;fill-opacity:1;fill-rule:evenodd;stroke:none;stroke-width:1px;stroke-linecap:butt;stroke-linejoin:miter;stroke-opacity:1" d="M -1547.1686,514.51617 C -1544.4731,517.30894 -1545.6601,521.44013 -1550.6082,526.86792 C -1556.5622,526.99358 -1560.8967,529.21293 -1563.7935,533.29083 C -1565.9731,523.41425 -1565.9198,515.2932 -1547.1686,514.51617 z " id="path2846" sodipodi:nodetypes="cccc"/>
          <path style="fill:#f7e600;fill-opacity:1;fill-rule:evenodd;stroke:none;stroke-width:1px;stroke-linecap:butt;stroke-linejoin:miter;stroke-opacity:1" d="M -1547.1686,557.50027 C -1542.3325,561.51616 -1537.5424,565.53774 -1543.1556,570.84016 C -1549.0894,572.34847 -1553.405,574.97245 -1551.7548,581.70969 C -1565.2802,574.83031 -1565.391,562.18484 -1547.1686,557.50027 z " id="path2848" sodipodi:nodetypes="cccc"/>
          <path id="path2909" style="fill:#f7e600;fill-opacity:1;fill-rule:evenodd;stroke:none;stroke-width:1px;stroke-linecap:butt;stroke-linejoin:miter;stroke-opacity:1" d="M -1468.6732,472.35208 C -1460.9369,464.81531 -1458.0616,453.84549 -1452.8021,440.97239 C -1444.535,444.13241 -1438.4047,449.3972 -1438.7982,461.08752 C -1447.7979,472.27822 -1458.5424,469.93489 -1468.6732,472.35208 z M -1444.3998,454.04725 C -1444.3998,457.04524 -1445.9682,459.47838 -1447.9007,459.47838 C -1449.8333,459.47838 -1451.4017,457.04524 -1451.4017,454.04725 C -1451.4017,451.04926 -1449.8333,448.61612 -1447.9007,448.61612 C -1445.9682,448.61612 -1444.3998,451.04926 -1444.3998,454.04725 z "/>
          <path style="fill:#f7e600;fill-opacity:1;fill-rule:evenodd;stroke:none;stroke-width:1px;stroke-linecap:butt;stroke-linejoin:miter;stroke-opacity:1" d="M -1410.7903,498.90411 C -1413.98,485.85803 -1432.0102,469.1576 -1411.7239,461.89213 C -1405.4975,463.49928 -1402.5486,467.93103 -1403.7884,475.97275 C -1407.8812,474.38507 -1408.9336,473.29002 -1408.6515,488.04064 C -1408.5967,490.90832 -1411.1864,494.76211 -1410.7903,498.90411 z " id="path2916" sodipodi:nodetypes="cccsc"/>
          <path style="fill:#f7e600;fill-opacity:1;fill-rule:evenodd;stroke:none;stroke-width:1px;stroke-linecap:butt;stroke-linejoin:miter;stroke-opacity:1" d="M -1406.1224,406.77655 C -1418.0223,415.8137 -1426.5382,424.34926 -1435.9974,422.86871 C -1439.4563,426.48946 -1449.7603,431.71935 -1445.3333,435.34011 C -1420.881,437.50884 -1404.9344,420.01387 -1406.1224,406.77655 z " id="path2918" sodipodi:nodetypes="cccc"/>
          <path style="fill:#f7e600;fill-opacity:1;fill-rule:evenodd;stroke:none;stroke-width:1px;stroke-linecap:butt;stroke-linejoin:miter;stroke-opacity:1" d="M -1385.5833,383.44289 L -1382.7825,412.00653 C -1376.2825,415.40217 -1384.494,382.77273 -1379.0481,381.43145 C -1370.5279,379.75147 -1362.8144,439.59121 -1377.6477,444.19084 C -1393.0632,425.40699 -1394.6431,389.17912 -1385.5833,383.44289 z " id="path2920" sodipodi:nodetypes="ccccc"/>
          <path sodipodi:nodetypes="ccccccc" id="path2922" d="M -1356.6563,414.81765 C -1363.6009,406.33949 -1352.2563,381.54664 -1364.5625,383.03737 C -1363.7532,405.50234 -1373.627,441.99985 -1345.1875,445.84382 C -1315.6257,443.04865 -1323.7964,405.58537 -1323.3125,383.06431 C -1335.6187,381.57359 -1324.3054,406.36642 -1331.25,414.84458 C -1333.5848,401.28308 -1329.945,374.09284 -1344.25,374.20353 C -1355.7577,374.20353 -1355.0778,401.1459 -1356.6563,414.81765 z " style="fill:#f7e600;fill-opacity:1;fill-rule:evenodd;stroke:none;stroke-width:1px;stroke-linecap:butt;stroke-linejoin:miter;stroke-opacity:1"/>
          <path style="fill:#f7e600;fill-opacity:1;fill-rule:evenodd;stroke:none;stroke-width:1px;stroke-linecap:butt;stroke-linejoin:miter;stroke-opacity:1" d="M -1416.3919,433.32858 C -1415.2814,449.95765 -1431.1107,449.14227 -1424.7943,453.44379 C -1418.8721,456.91545 -1421.181,443.22687 -1411.7239,439.76547 C -1409.1778,457.41023 -1420.0497,462.43957 -1430.8626,467.52441 C -1445.2388,435.37148 -1435.2717,436.46748 -1416.3919,433.32858 z " id="path2924" sodipodi:nodetypes="ccccc"/>
          <path id="path2926" style="fill:#f7e600;fill-opacity:1;fill-rule:evenodd;stroke:black;stroke-width:0.9283523px;stroke-linecap:butt;stroke-linejoin:miter;stroke-opacity:1" d="M -1397.5049,412.52975 C -1411.2485,422.43581 -1410.2792,459.30851 -1397.0559,462.45362 C -1386.7875,442.54731 -1389.6774,426.41302 -1397.5049,412.52975 z M -1393.9125,437.2982 C -1393.9125,439.43444 -1395.1196,441.1682 -1396.6068,441.1682 C -1398.0941,441.1682 -1399.3011,439.43444 -1399.3011,437.2982 C -1399.3011,435.16188 -1398.0941,433.42812 -1396.6068,433.42812 C -1395.1196,433.42812 -1393.9125,435.16188 -1393.9125,437.2982 z "/>
          <path sodipodi:nodetypes="ccccccc" id="path4063" d="M -1345.3516,239.28545 C -1348.6223,245.11212 -1351.8222,252.30013 -1357.7813,252.33425 C -1356.9047,260.39606 -1360.6724,273.25342 -1345.3125,276.78891 C -1333.8759,279.60505 -1328.0435,261.13921 -1330.0938,252.36119 C -1336.0529,252.32706 -1338.4558,244.78219 -1341.7266,238.95552 C -1342.2572,247.02319 -1340.7901,259.1079 -1344.2813,261.22196 C -1347.8674,258.54848 -1345.0015,246.60728 -1345.3516,239.28545 z " style="fill:#f7e600;fill-opacity:1;fill-rule:evenodd;stroke:none;stroke-width:1px;stroke-linecap:butt;stroke-linejoin:miter;stroke-opacity:1"/>
          <path style="fill:#f7e600;fill-opacity:1;fill-rule:evenodd;stroke:none;stroke-width:6.02362204;stroke-linecap:round;stroke-linejoin:miter;stroke-miterlimit:4;stroke-dashoffset:0;stroke-opacity:1" d="M -1343.5466,465.98171 C -1329.7738,479.63423 -1330.3642,518.85139 -1342.4631,530.37067 C -1360.2175,524.06444 -1356.1215,475.73074 -1343.5466,465.98171 z " id="rect4065" sodipodi:nodetypes="ccc"/>
          <g style="fill:#f7e600;fill-opacity:1" transform="matrix(1,0,0,0.861838,336.3283,3.884171)" id="g3253">
            <path style="fill:#f7e600;fill-opacity:1;fill-rule:evenodd;stroke:none;stroke-width:1px;stroke-linecap:butt;stroke-linejoin:miter;stroke-opacity:1" d="M -1385.1862,224.47658 L -1368.9728,237.21578 C -1371.6088,299.75918 -1356.3653,362.30258 -1344.8772,424.84608 C -1403.1311,398.22588 -1404.2565,316.14738 -1413.9143,249.22798 C -1406.8294,256.34648 -1399.304,261.70298 -1390.9767,263.85208 C -1389.18,305.95128 -1386.2588,342.99008 -1377.0795,351.86788 C -1385.3187,307.55848 -1383.8787,266.47548 -1385.1862,224.47658 z " id="path3187" sodipodi:nodetypes="ccccccc"/>
            <path style="fill:#f7e600;fill-opacity:1;fill-rule:evenodd;stroke:none;stroke-width:1px;stroke-linecap:butt;stroke-linejoin:miter;stroke-opacity:1" d="M -1368.8194,545.00198 C -1464.9401,514.69288 -1459.1008,396.98948 -1472.4484,295.73208 C -1465.4827,302.62918 -1458.2436,309.12678 -1450.0422,297.59928 C -1446.3485,363.55158 -1436.0826,429.37208 -1411.298,482.91788 C -1428.0605,423.79588 -1443.598,339.06988 -1440.7062,270.05828 L -1426.2355,284.99578 C -1419.3448,374.91808 -1406.4446,461.75668 -1368.8194,545.00198 z " id="path3189" sodipodi:nodetypes="ccccccc"/>
            <path style="fill:#f7e600;fill-opacity:1;fill-rule:evenodd;stroke:none;stroke-width:1px;stroke-linecap:butt;stroke-linejoin:miter;stroke-opacity:1" d="M -1461.2453,556.67188 C -1519.1647,527.81538 -1529.9211,470.08058 -1538.7337,317.67158 C -1530.1571,321.49898 -1520.1553,334.78668 -1516.3274,314.87078 C -1513.7545,386.08618 -1501.7825,484.93938 -1490.6535,500.18938 C -1503.0612,437.94648 -1510.9362,373.48458 -1508.8586,303.20088 L -1488.7864,319.53878 C -1490.0064,402.36988 -1477.1553,496.09708 -1461.2453,556.67188 z " id="path3191" sodipodi:nodetypes="ccccccc"/>
            <path style="fill:#f7e600;fill-opacity:1;fill-rule:evenodd;stroke:none;stroke-width:1px;stroke-linecap:butt;stroke-linejoin:miter;stroke-opacity:1" d="M -1583.0794,310.20288 C -1577.6335,313.80928 -1568.4531,325.46038 -1561.14,329.80838 C -1561.98,381.62288 -1555.4381,439.50568 -1541.0677,492.72068 C -1576.6609,467.08238 -1629.0791,413.27048 -1610.1537,323.27318 C -1602.6849,329.98738 -1595.2162,332.20018 -1587.7474,322.80638 C -1590.9852,374.79628 -1583.6902,412.96888 -1569.5423,437.63858 C -1582.4149,404.02608 -1586.2548,358.62868 -1583.0794,310.20288 z " id="path3193" sodipodi:nodetypes="ccccccc"/>
            <path style="fill:#f7e600;fill-opacity:1;fill-rule:evenodd;stroke:none;stroke-width:1px;stroke-linecap:butt;stroke-linejoin:miter;stroke-opacity:1" d="M -1361.3507,233.18128 C -1377.7191,230.53448 -1387.2992,214.18478 -1394.4933,198.17148 C -1391.0106,216.18508 -1389.1622,234.47118 -1393.0929,253.72038 C -1406.7859,249.64398 -1416.9985,241.39118 -1418.2999,222.44498 C -1419.931,239.73678 -1414.1833,265.22728 -1425.7687,271.45868 C -1437.8062,265.77208 -1445.7837,256.60538 -1449.1086,243.45078 C -1443.7029,264.98368 -1444.4672,283.81718 -1458.9113,296.66568 C -1474.4216,288.48188 -1476.3842,276.23368 -1479.9172,264.45668 L -1484.5852,310.20288 C -1505.2771,307.86668 -1506.7427,290.14938 -1509.3254,273.32588 C -1511.741,287.95218 -1512.7509,302.57848 -1524.7298,317.20478 C -1542.1416,314.68238 -1545.5522,299.32538 -1550.8704,285.92938 C -1553.0798,298.48938 -1547.3798,314.21318 -1560.6732,322.33958 C -1571.0166,314.32238 -1582.4375,307.38248 -1580.7454,287.32978 C -1582.6445,304.91128 -1587.7194,317.19968 -1597.0834,322.33958 C -1615.7034,315.75258 -1612.5144,263.27078 -1591.015,267.25748 C -1563.98,260.61498 -1537.8296,265.87348 -1521.0795,259.07748 C -1498.0424,249.73048 -1486.355,233.61948 -1483.1848,211.24178 C -1522.159,216.51988 -1545.3237,194.89138 -1542.9349,155.22608 C -1545.1798,109.76914 -1514.4167,87.683627 -1474.7824,87.073687 C -1429.1039,82.779757 -1390.5265,126.54468 -1376.8993,164.14778 C -1369.4692,184.65018 -1373.6074,207.58488 -1361.3507,233.18128 z " id="path3195" sodipodi:nodetypes="ccccccccccccccccscccsc"/>
            <path style="fill:#f7e600;fill-opacity:1;fill-rule:evenodd;stroke:none;stroke-width:1px;stroke-linecap:butt;stroke-linejoin:miter;stroke-opacity:1" d="M -1618.556,282.19498 L -1613.4213,289.66378 C -1614.3096,302.33578 -1611.6174,322.88478 -1618.0892,323.27318 C -1633.1817,311.10788 -1627.3198,291.32288 -1630.226,274.72628 C -1623.4416,275.31708 -1622.5102,287.61368 -1621.8236,300.40008 C -1617.456,298.70298 -1619.5607,288.37598 -1618.556,282.19498 z " id="path3197" sodipodi:nodetypes="cccccc"/>
            <path style="fill:#f7e600;fill-opacity:1;fill-rule:evenodd;stroke:none;stroke-width:1px;stroke-linecap:butt;stroke-linejoin:miter;stroke-opacity:1" d="M -1636.7611,320.93918 C -1658.4977,328.84948 -1638.0798,365.75318 -1631.1596,370.41968 C -1615.6706,366.91038 -1612.9058,326.77668 -1628.8256,320.00558 L -1631.1596,349.41388 C -1637.6947,352.89218 -1631.1596,323.56318 -1636.7611,320.93918 z " id="path3199" sodipodi:nodetypes="ccccc"/>
            <path style="fill:#f7e600;fill-opacity:1;fill-rule:evenodd;stroke:none;stroke-width:1px;stroke-linecap:butt;stroke-linejoin:miter;stroke-opacity:1" d="M -1644.2299,259.78878 L -1634.4271,271.92548 C -1636.2554,290.81668 -1632.5688,316.72668 -1647.0307,319.53878 C -1666.1992,303.75748 -1662.7976,285.15708 -1650.2983,266.32388 C -1648.8643,277.20358 -1650.6723,299.62538 -1647.0307,299.46648 C -1643.2522,293.35288 -1645.1635,273.01468 -1644.2299,259.78878 z " id="path3203" sodipodi:nodetypes="cccccc"/>
            <path style="fill:#f7e600;fill-opacity:1;fill-rule:evenodd;stroke:none;stroke-width:1px;stroke-linecap:butt;stroke-linejoin:miter;stroke-opacity:1" d="M -1619.4896,372.28688 C -1617.1803,408.29158 -1624.164,425.37078 -1634.4271,431.10338 C -1634.2647,406.38008 -1638.5614,376.91898 -1619.4896,372.28688 z " id="path3205" sodipodi:nodetypes="ccc"/>
            <path style="fill:#f7e600;fill-opacity:1;fill-rule:evenodd;stroke:none;stroke-width:1px;stroke-linecap:butt;stroke-linejoin:miter;stroke-opacity:1" d="M -1658.7006,373.68728 C -1668.8584,391.68388 -1666.48,416.51588 -1653.099,435.77138 C -1642.2861,437.11308 -1627.1969,367.05358 -1646.0971,367.61898 C -1652.8687,369.76468 -1647.4597,404.53988 -1654.0326,397.96078 C -1654.9958,388.92118 -1652.1779,373.83168 -1658.7006,373.68728 z " id="path3207" sodipodi:nodetypes="ccccc"/>
            <path style="fill:#f7e600;fill-opacity:1;fill-rule:evenodd;stroke:none;stroke-width:1px;stroke-linecap:butt;stroke-linejoin:miter;stroke-opacity:1" d="M -1617.6224,405.42948 C -1623.1234,430.25298 -1599.7654,451.46068 -1601.7513,460.51158 C -1609.8203,456.24398 -1617.0895,433.23888 -1620.89,432.50378 C -1625.2822,431.58368 -1635.8524,436.47248 -1628.3588,450.70888 C -1617.4249,462.54638 -1593.1507,483.86678 -1578.8783,487.11908 C -1574.1563,471.71288 -1589.2046,463.51008 -1596.7959,442.76758 C -1609.4043,408.31658 -1611.5479,404.64958 -1617.6224,405.42948 z " id="path3211" sodipodi:nodetypes="cccccsc"/>
            <path style="fill:#f7e600;fill-opacity:1;fill-rule:evenodd;stroke:none;stroke-width:1px;stroke-linecap:butt;stroke-linejoin:miter;stroke-opacity:1" d="M -1674.9259,645.01377 C -1677.9852,737.59619 -1662.8094,742.68628 -1657.5055,763.74309 C -1638.0948,844.72119 -1548.5434,808.21238 -1542.6359,761.07838 C -1552.7273,755.90938 -1566.3822,768.64788 -1597.4011,763.92338 C -1555.4258,751.63448 -1553.7854,729.35938 -1559.5676,702.87358 C -1595.4495,731.65558 -1654.0105,747.18859 -1664.878,649.10944 C -1672.5545,714.08519 -1640.2294,766.82674 -1601.5082,738.19316 L -1615.8909,750.06222 C -1657.6108,752.93691 -1667.9011,701.32282 -1674.9259,645.01377 z " id="path3215" sodipodi:nodetypes="ccccccccc"/>
            <path style="fill:#f7e600;fill-opacity:1;fill-rule:evenodd;stroke:none;stroke-width:1px;stroke-linecap:butt;stroke-linejoin:miter;stroke-opacity:1" d="M -1658.7714,612.58968 C -1661.7944,592.90098 -1652.2548,600.63848 -1654.7584,566.15438 C -1672.4488,569.19788 -1666.0166,591.18798 -1666.7972,612.01638 L -1658.7714,612.58968 z " id="path3219" sodipodi:nodetypes="cccc"/>
            <path style="fill:#f7e600;fill-opacity:1;fill-rule:evenodd;stroke:none;stroke-width:1px;stroke-linecap:butt;stroke-linejoin:miter;stroke-opacity:1" d="M -1663.3576,564.43458 C -1649.4495,558.88448 -1648.289,537.75408 -1647.8791,515.70618 C -1658.4228,510.63918 -1653.4977,528.94428 -1658.7714,532.33118 L -1662.7843,512.26658 C -1687.5937,525.96318 -1665.7749,546.65398 -1663.3576,564.43458 z " id="path3221" sodipodi:nodetypes="ccccc"/>
            <path style="fill:#f7e600;fill-opacity:1;fill-rule:evenodd;stroke:none;stroke-width:1px;stroke-linecap:butt;stroke-linejoin:miter;stroke-opacity:1" d="M -1562.461,622.90859 C -1559.1026,591.2088 -1592.7045,563.07063 -1602.0169,556.98199 C -1600.4551,544.95139 -1590.2484,545.02349 -1581.379,543.22339 C -1568.7678,569.89491 -1551.1591,610.03121 -1541.8231,613.16292 C -1527.4912,616.46429 -1516.0257,613.46396 -1501.6938,602.2707 C -1495.3878,594.99375 -1489.6551,593.20627 -1485.0689,592.52503 C -1484.1532,598.85095 -1482.7053,604.91077 -1478.7628,609.72327 C -1497.1056,618.80957 -1515.3469,628.35194 -1536.6636,624.05514 C -1544.8821,628.33061 -1544.0453,633.73801 -1540.1033,639.53356 C -1530.3415,653.57797 -1516.262,656.04763 -1509.1464,668.77058 C -1516.7456,668.85946 -1519.888,672.1294 -1522.905,681.38263 C -1527.3001,682.31653 -1534.5616,671.79751 -1538.9567,660.74473 C -1535.6,653.78956 -1555.3701,626.7989 -1571.6334,640.10684 C -1573.4983,646.14923 -1575.0424,654.07185 -1582.5256,657.30508 C -1584.7115,647.82663 -1587.8098,646.55706 -1594.5644,644.69304 C -1585.4256,623.83045 -1576.6887,635.24259 -1562.461,622.90859 z " id="path3223" sodipodi:nodetypes="cccccccccccccccc"/>
            <path style="fill:#f7e600;fill-opacity:1;fill-rule:evenodd;stroke:none;stroke-width:1px;stroke-linecap:butt;stroke-linejoin:miter;stroke-opacity:1" d="M -1532.6507,628.64134 C -1529.3394,631.69881 -1514.0945,633.03645 -1506.28,637.81374 C -1498.8997,629.57587 -1490.3557,635.01097 -1483.349,638.38701 C -1486.8734,643.64793 -1486.1083,651.07552 -1489.0818,659.59818 C -1495.5433,652.95608 -1502.8811,651.23611 -1510.5826,648.31415 C -1518.3181,645.37927 -1526.4206,641.25205 -1534.3705,638.96029 C -1539.8765,631.87307 -1542.3038,626.63308 -1532.6507,628.64134 z " id="path3225" sodipodi:nodetypes="ccccscc"/>
            <path style="fill:#f7e600;fill-opacity:1;fill-rule:evenodd;stroke:none;stroke-width:1px;stroke-linecap:butt;stroke-linejoin:miter;stroke-opacity:1" d="M -1597.4307,650.99906 C -1592.5297,651.51592 -1587.8611,652.49777 -1585.9652,659.02491 C -1588.9994,663.8022 -1590.1708,668.57949 -1587.1118,673.35678 C -1594.0074,670.22417 -1602.318,668.86027 -1597.4307,650.99906 z " id="path3227" sodipodi:nodetypes="cccc"/>
            <path style="fill:#f7e600;fill-opacity:1;fill-rule:evenodd;stroke:none;stroke-width:1px;stroke-linecap:butt;stroke-linejoin:miter;stroke-opacity:1" d="M -1506.8533,673.93005 C -1510.6751,674.26276 -1514.497,674.09577 -1518.3188,684.82227 L -1516.599,695.7145 C -1506.3478,693.12144 -1503.3468,685.6949 -1506.8533,673.93005 z " id="path3229" sodipodi:nodetypes="cccc"/>
            <path style="fill:#f7e600;fill-opacity:1;fill-rule:evenodd;stroke:none;stroke-width:1px;stroke-linecap:butt;stroke-linejoin:miter;stroke-opacity:1" d="M -1477.043,592.52503 C -1479.7385,595.76551 -1478.5515,600.55897 -1473.6034,606.8569 C -1467.6494,607.0027 -1463.3149,609.57784 -1460.4181,614.30947 C -1458.2385,602.84957 -1458.2918,593.42662 -1477.043,592.52503 z " id="path3231" sodipodi:nodetypes="cccc"/>
            <path style="fill:#f7e600;fill-opacity:1;fill-rule:evenodd;stroke:none;stroke-width:1px;stroke-linecap:butt;stroke-linejoin:miter;stroke-opacity:1" d="M -1477.043,642.39994 C -1481.8791,647.05963 -1486.6692,651.72591 -1481.056,657.87836 C -1475.1222,659.62847 -1470.8066,662.6731 -1472.4568,670.4904 C -1458.9314,662.50818 -1458.8206,647.8355 -1477.043,642.39994 z " id="path3233" sodipodi:nodetypes="cccc"/>
            <path id="path3235" style="fill:#f7e600;fill-opacity:1;fill-rule:evenodd;stroke:none;stroke-width:1px;stroke-linecap:butt;stroke-linejoin:miter;stroke-opacity:1" d="M -1555.5384,543.60158 C -1563.2747,534.85658 -1566.15,522.12818 -1571.4095,507.19138 C -1579.6766,510.85798 -1585.8069,516.96678 -1585.4134,530.53118 C -1576.4137,543.51588 -1565.6692,540.79688 -1555.5384,543.60158 z M -1579.8118,522.36228 C -1579.8118,525.84088 -1578.2434,528.66408 -1576.3109,528.66408 C -1574.3783,528.66408 -1572.8099,525.84088 -1572.8099,522.36228 C -1572.8099,518.88368 -1574.3783,516.06048 -1576.3109,516.06048 C -1578.2434,516.06048 -1579.8118,518.88368 -1579.8118,522.36228 z "/>
            <path style="fill:#f7e600;fill-opacity:1;fill-rule:evenodd;stroke:none;stroke-width:1px;stroke-linecap:butt;stroke-linejoin:miter;stroke-opacity:1" d="M -1613.4213,574.41018 C -1610.2316,559.27268 -1592.2014,539.89498 -1612.4877,531.46478 C -1618.7141,533.32958 -1621.663,538.47178 -1620.4232,547.80268 C -1616.3304,545.96048 -1615.278,544.68988 -1615.5601,561.80518 C -1615.6149,565.13258 -1613.0252,569.60418 -1613.4213,574.41018 z " id="path3237" sodipodi:nodetypes="cccsc"/>
            <path style="fill:#f7e600;fill-opacity:1;fill-rule:evenodd;stroke:none;stroke-width:1px;stroke-linecap:butt;stroke-linejoin:miter;stroke-opacity:1" d="M -1618.0892,467.51358 C -1606.1893,477.99948 -1597.6734,487.90338 -1588.2142,486.18548 C -1584.7553,490.38668 -1574.4513,496.45498 -1578.8783,500.65618 C -1603.3306,503.17258 -1619.2772,482.87298 -1618.0892,467.51358 z " id="path3239" sodipodi:nodetypes="cccc"/>
            <path style="fill:#f7e600;fill-opacity:1;fill-rule:evenodd;stroke:none;stroke-width:1px;stroke-linecap:butt;stroke-linejoin:miter;stroke-opacity:1" d="M -1638.6283,440.43928 L -1641.4291,473.58198 C -1647.9291,477.52198 -1639.7176,439.66168 -1645.1635,438.10538 C -1653.6837,436.15608 -1661.3972,505.58878 -1646.5639,510.92578 C -1631.1484,489.13068 -1629.5685,447.09508 -1638.6283,440.43928 z " id="path3241" sodipodi:nodetypes="ccccc"/>
            <path style="fill:#f7e600;fill-opacity:1;fill-rule:evenodd;stroke:none;stroke-width:1px;stroke-linecap:butt;stroke-linejoin:miter;stroke-opacity:1" d="M -1607.8197,498.32218 C -1608.9302,517.61708 -1593.1009,516.67098 -1599.4173,521.66208 C -1605.3395,525.69028 -1603.0306,509.80728 -1612.4877,505.79098 C -1615.0338,526.26438 -1604.1619,532.09998 -1593.349,537.99998 C -1578.9728,500.69258 -1588.9399,501.96428 -1607.8197,498.32218 z " id="path3245" sodipodi:nodetypes="ccccc"/>
            <path id="path3247" style="fill:#f7e600;fill-opacity:1;fill-rule:evenodd;stroke:black;stroke-width:1px;stroke-linecap:butt;stroke-linejoin:miter;stroke-opacity:1" d="M -1626.7067,474.18908 C -1612.9631,485.68318 -1613.9324,528.46698 -1627.1557,532.11628 C -1637.4241,509.01878 -1634.5342,490.29798 -1626.7067,474.18908 z M -1630.2991,502.92818 C -1630.2991,505.40688 -1629.092,507.41858 -1627.6048,507.41858 C -1626.1175,507.41858 -1624.9105,505.40688 -1624.9105,502.92818 C -1624.9105,500.44938 -1626.1175,498.43768 -1627.6048,498.43768 C -1629.092,498.43768 -1630.2991,500.44938 -1630.2991,502.92818 z "/>
          </g>
          <path sodipodi:nodetypes="cccc" id="path3291" d="M -1344.7888,330.7313 C -1347.6423,342.92162 -1341.6007,366.58798 -1340.9975,330.21911 C -1327.5156,340.66469 -1331.041,360.7299 -1342.049,371.21057 C -1359.8034,364.90434 -1357.3637,340.48034 -1344.7888,330.7313 z " style="fill:#f7e600;fill-opacity:1;fill-rule:evenodd;stroke:none;stroke-width:6.02362204;stroke-linecap:round;stroke-linejoin:miter;stroke-miterlimit:4;stroke-dashoffset:0;stroke-opacity:1"/>
        </g>
      </g>
    </g>
  </g>
</svg>